<svg width="16" height="16" viewBox="0 0 16 16" fill="none" xmlns="http://www.w3.org/2000/svg">
    <path
        d="M0 8.08594C3.54285 8.19451 5.15989 8.28583 6.45703 9.54297C7.71417 10.8401 7.79978 12.4571 7.91406 16C4.61133 16 2.33141 15.9885 1.1543 14.8457C0.0114671 13.6686 5.32896e-07 11.2801 0 8.08594ZM16 8.08594C16 11.2801 15.9885 13.6686 14.8457 14.8457C13.6686 15.9885 11.3887 16 8.08594 16C8.19451 12.4572 8.28583 10.8401 9.54297 9.54297C10.8401 8.28583 12.4572 8.20022 16 8.08594ZM7.91406 0C7.80549 3.54285 7.71417 5.15989 6.45703 6.45703C5.15989 7.71417 3.54285 7.79978 0 7.91406C5.35173e-07 4.71989 0.0114672 2.33141 1.1543 1.1543C2.33141 0.0114663 4.61704 5.18464e-07 7.91406 0ZM8.08594 0C11.3887 5.15362e-07 13.6686 0.0114661 14.8457 1.1543C15.9885 2.33141 16 4.71989 16 7.91406C12.4571 7.79978 10.8401 7.71417 9.54297 6.45703C8.28583 5.15989 8.19451 3.54285 8.08594 0Z"
        fill="white" />
</svg>