<svg width="12" height="21" viewBox="0 0 12 21" fill="none" xmlns="http://www.w3.org/2000/svg">
<path d="M5.99985 3.17636C7.22067 3.17636 8.2137 4.18291 8.2137 5.42035C8.2137 6.65676 7.22041 7.66331 5.99985 7.66331C4.77981 7.66331 3.78652 6.65676 3.78652 5.42035C3.78626 4.18265 4.78006 3.17636 5.99985 3.17636ZM5.99985 10.8381C8.94875 10.8381 11.3469 8.40811 11.3469 5.42035C11.3469 2.43104 8.94901 0 5.99985 0C3.05121 0 0.652834 2.4313 0.652834 5.42035C0.652834 8.40811 3.05121 10.8381 5.99985 10.8381ZM8.16303 15.2589C9.26299 15.005 10.3127 14.5644 11.2678 13.9558C11.6194 13.7316 11.8687 13.375 11.9609 12.9644C12.0531 12.5539 11.9807 12.123 11.7594 11.7666C11.65 11.5899 11.5073 11.4369 11.3395 11.3162C11.1717 11.1955 10.9821 11.1095 10.7815 11.0631C10.5809 11.0168 10.3732 11.011 10.1703 11.046C9.9675 11.0811 9.77347 11.1563 9.59934 11.2675C7.40878 12.6634 4.58939 12.6624 2.40062 11.2675C2.22653 11.1563 2.03251 11.081 1.82969 11.046C1.62686 11.0109 1.4192 11.0167 1.21859 11.063C1.01798 11.1094 0.828355 11.1954 0.660571 11.3161C0.492787 11.4368 0.350134 11.5899 0.240776 11.7666C0.019496 12.1229 -0.0530988 12.5537 0.0389576 12.9642C0.131014 13.3748 0.380182 13.7315 0.731662 13.9558C1.68668 14.5642 2.73618 15.0048 3.83591 15.2589L0.846833 18.2892C0.553089 18.5871 0.388106 18.991 0.388178 19.4121C0.38825 19.8333 0.553371 20.2372 0.847217 20.5349C1.14106 20.8326 1.53956 20.9999 1.95505 20.9998C2.37054 20.9997 2.76899 20.8324 3.06273 20.5345L5.99934 17.5574L8.93775 20.5348C9.08303 20.6823 9.25558 20.7993 9.44552 20.8791C9.63545 20.9589 9.83905 21 10.0447 21C10.2503 21 10.4539 20.9589 10.6438 20.8791C10.8338 20.7993 11.0063 20.6823 11.1516 20.5348C11.2973 20.3875 11.4129 20.2126 11.4918 20.0199C11.5707 19.8273 11.6113 19.6208 11.6113 19.4123C11.6113 19.2037 11.5707 18.9972 11.4918 18.8046C11.4129 18.6119 11.2973 18.437 11.1516 18.2897L8.16303 15.2589Z" fill="white"/>
</svg>
