<svg width="14" height="16" viewBox="0 0 14 16" fill="none" xmlns="http://www.w3.org/2000/svg">
    <path
        d="M10.1182 0C10.1182 0.237683 10.1408 0.471698 10.1816 0.698242C10.3784 1.7458 10.9982 2.64516 11.8594 3.20605C12.4606 3.59976 13.1732 3.82616 13.9414 3.82617V6.5752C12.5161 6.5752 11.1946 6.11842 10.1182 5.3457V10.9365C10.1182 13.7262 7.84687 15.9998 5.05957 16C3.98315 16 2.98047 15.6578 2.16016 15.082C0.853753 14.1644 0 12.649 0 10.9365C3.71627e-05 8.14296 2.26818 5.8733 5.05566 5.87695C5.28937 5.87697 5.5157 5.89508 5.73828 5.9248V6.5752L5.73047 6.5791H5.73828V8.7334C5.52313 8.66657 5.29307 8.62601 5.05566 8.62598C3.78255 8.62598 2.74711 9.66237 2.74707 10.9365C2.74707 11.8244 3.25145 12.5933 3.98633 12.9834C3.99318 12.9928 3.99986 13.0024 4.00684 13.0117L4.01953 13.0273C4.01112 13.0111 4.00132 12.9951 3.99023 12.9795C4.31305 13.1503 4.67658 13.247 5.0625 13.2471C6.30575 13.2471 7.32347 12.2556 7.36816 11.0225L7.37109 0H10.1182Z"
        fill="white" />
</svg>