<svg width="20" height="12" viewBox="0 0 20 12" fill="none" xmlns="http://www.w3.org/2000/svg">
<path d="M16.9233 7.3341C16.7079 7.04179 16.6596 6.74591 16.7774 6.44612C17.0711 5.64627 21.3494 0.566125 19.5671 0.566125C18.3424 0.582402 16.8696 0.566125 15.6954 0.566125C15.4775 0.619182 15.3364 0.733571 15.2482 0.966309C14.5616 2.54946 13.7214 4.48147 12.4901 5.72315C12.3281 5.85376 12.2271 5.84819 12.0425 5.79989C11.1788 4.89054 12.0998 1.77508 11.5745 0.54405C11.471 0.303085 11.2444 0.194249 11.0125 0.132963C9.83989 -0.146508 7.16168 0.0198416 6.7247 0.582402C6.59978 0.743221 6.58236 0.830983 6.67254 0.845417C7.08889 0.911104 7.38364 1.06824 7.55711 1.31666C7.88438 2.03737 8.12556 5.8764 7.16168 5.8764C6.19781 5.8764 4.64353 2.1088 4.21654 1.06436C4.10291 0.74988 3.81365 0.569589 3.50887 0.51637L0.657295 0.538176C0.156057 0.538176 -0.124075 0.785431 0.0535831 1.28357C1.53881 4.97029 4.78898 12.1164 9.77392 11.9375C10.2733 11.9375 11.1324 12.1292 11.5224 11.6963C12.0584 10.9852 11.4047 9.71885 12.3237 9.23589C12.5555 9.11255 12.7958 9.21594 12.9949 9.36757C14.0172 10.146 14.5599 11.5122 15.8206 11.927C16.0422 12 16.2365 12.0183 16.4032 11.9818L19.0674 11.938C19.562 11.938 20.0492 11.7179 19.9469 11.1266C19.5585 9.8585 18.0108 8.55498 16.9233 7.3341Z" fill="white"/>
</svg>
