<svg width="20" height="18" viewBox="0 0 20 18" fill="none" xmlns="http://www.w3.org/2000/svg">
    <path fill-rule="evenodd" clip-rule="evenodd"
        d="M0.00338074 3.02684C0.995605 2.02079 1.98614 1.01126 2.97498 0C5.31947 2.38221 7.65889 4.76789 9.99662 7.15704C12.3445 4.77658 14.6873 2.38916 17.0267 0.00173728C18.0189 1.00779 19.0061 2.01732 20 3.02337C18.2759 4.78874 16.545 6.54889 14.8158 8.30731C14.0686 9.04926 13.1558 9.61744 12.1653 9.94584C10.7978 10.408 9.28837 10.415 7.91413 9.97017C6.8712 9.63655 5.91109 9.03883 5.13185 8.25171C3.42123 6.51067 1.714 4.76267 0 3.02511L0.00338074 3.02684ZM7.90568 12.7868C7.91413 12.1473 8.46856 11.5896 9.08722 11.5774C9.6856 11.5739 10.2823 11.5774 10.8807 11.5774C11.3607 11.5757 11.8256 11.8937 12.0098 12.3489C12.0943 12.5505 12.1095 12.7711 12.1112 12.9883C12.1095 14.6581 12.1112 16.3262 12.1112 17.996C10.7099 18.0047 9.30696 17.996 7.90568 17.9995C7.90568 16.2636 7.90399 14.5261 7.90568 12.7902V12.7868Z"
        fill="white" />
</svg>