<?xml version="1.0" encoding="UTF-8" standalone="no"?>
<svg
   width="24"
   height="24"
   viewBox="0 0 24 24"
   fill="none"
   version="1.1"
   id="svg1"
   sodipodi:docname="arrow-up-right.svg"
   inkscape:version="1.4.3 (0d15f75, 2025-12-25)"
   xmlns:inkscape="http://www.inkscape.org/namespaces/inkscape"
   xmlns:sodipodi="http://sodipodi.sourceforge.net/DTD/sodipodi-0.dtd"
   xmlns="http://www.w3.org/2000/svg"
   xmlns:svg="http://www.w3.org/2000/svg">
  <defs
     id="defs1" />
  <sodipodi:namedview
     id="namedview1"
     pagecolor="#ffffff"
     bordercolor="#000000"
     borderopacity="0.25"
     inkscape:showpageshadow="2"
     inkscape:pageopacity="0.0"
     inkscape:pagecheckerboard="0"
     inkscape:deskcolor="#d1d1d1"
     inkscape:zoom="48.625"
     inkscape:cx="11.989717"
     inkscape:cy="12"
     inkscape:window-width="3440"
     inkscape:window-height="1369"
     inkscape:window-x="-8"
     inkscape:window-y="-8"
     inkscape:window-maximized="1"
     inkscape:current-layer="svg1" />
  <path
     style="baseline-shift:baseline;display:inline;overflow:visible;vector-effect:none;fill:#d5d7da;stroke-linecap:round;stroke-linejoin:round;enable-background:accumulate;stop-color:#000000;stop-opacity:1;opacity:1"
     d="M 7,6.1660156 A 0.83333498,0.83333498 0 0 0 6.1660156,7 0.83333498,0.83333498 0 0 0 7,7.8339844 h 7.986328 L 6.4101562,16.410156 a 0.83333498,0.83333498 0 0 0 0,1.179688 0.83333498,0.83333498 0 0 0 1.1796875,0 L 16.166016,9.0136719 V 17 A 0.83333498,0.83333498 0 0 0 17,17.833984 0.83333498,0.83333498 0 0 0 17.833984,17 V 7 a 0.83333498,0.83333498 0 0 0 -0.24414,-0.2441406 0.83333498,0.83333498 0 0 0 0,-0.3457032 A 0.83333498,0.83333498 0 0 0 17,6.1660156 Z"
     id="path1" />
</svg>
