<svg width="32" height="32" viewBox="0 0 32 32" fill="none" xmlns="http://www.w3.org/2000/svg">
<path d="M20 28V20.8C20 20.0533 20 19.6799 19.8547 19.3947C19.7268 19.1438 19.5229 18.9398 19.272 18.812C18.9868 18.6667 18.6134 18.6667 17.8667 18.6667H14.1333C13.3866 18.6667 13.0132 18.6667 12.728 18.812C12.4771 18.9398 12.2732 19.1438 12.1453 19.3947C12 19.6799 12 20.0533 12 20.8V28M4 9.33333C4 11.5425 5.79086 13.3333 8 13.3333C10.2091 13.3333 12 11.5425 12 9.33333C12 11.5425 13.7909 13.3333 16 13.3333C18.2091 13.3333 20 11.5425 20 9.33333C20 11.5425 21.7909 13.3333 24 13.3333C26.2091 13.3333 28 11.5425 28 9.33333M8.26667 28H23.7333C25.2268 28 25.9735 28 26.544 27.7094C27.0457 27.4537 27.4537 27.0457 27.7094 26.544C28 25.9735 28 25.2268 28 23.7333V8.26667C28 6.77319 28 6.02646 27.7094 5.45603C27.4537 4.95426 27.0457 4.54631 26.544 4.29065C25.9735 4 25.2268 4 23.7333 4H8.26667C6.77319 4 6.02646 4 5.45603 4.29065C4.95426 4.54631 4.54631 4.95426 4.29065 5.45603C4 6.02646 4 6.77319 4 8.26667V23.7333C4 25.2268 4 25.9735 4.29065 26.544C4.54631 27.0457 4.95426 27.4537 5.45603 27.7094C6.02646 28 6.77319 28 8.26667 28Z" stroke="white" stroke-width="2" stroke-linecap="round" stroke-linejoin="round"/>
</svg>
