<?xml version="1.0" encoding="UTF-8" standalone="no"?>
<svg
   width="20"
   height="20"
   viewBox="0 0 20 20"
   fill="none"
   version="1.1"
   id="svg1"
   sodipodi:docname="calendar.svg"
   inkscape:version="1.4.3 (0d15f75, 2025-12-25)"
   xmlns:inkscape="http://www.inkscape.org/namespaces/inkscape"
   xmlns:sodipodi="http://sodipodi.sourceforge.net/DTD/sodipodi-0.dtd"
   xmlns="http://www.w3.org/2000/svg"
   xmlns:svg="http://www.w3.org/2000/svg">
  <defs
     id="defs1" />
  <sodipodi:namedview
     id="namedview1"
     pagecolor="#ffffff"
     bordercolor="#000000"
     borderopacity="0.25"
     inkscape:showpageshadow="2"
     inkscape:pageopacity="0.0"
     inkscape:pagecheckerboard="0"
     inkscape:deskcolor="#d1d1d1"
     inkscape:zoom="58.35"
     inkscape:cx="9.991431"
     inkscape:cy="10"
     inkscape:window-width="3440"
     inkscape:window-height="1369"
     inkscape:window-x="-8"
     inkscape:window-y="-8"
     inkscape:window-maximized="1"
     inkscape:current-layer="svg1" />
  <path
     style="baseline-shift:baseline;display:inline;overflow:visible;vector-effect:none;fill:#a4a7ae;stroke-linecap:round;stroke-linejoin:round;enable-background:accumulate;stop-color:#000000;stop-opacity:1;opacity:1"
     d="m 6.6660156,1.1660156 a 0.5,0.5 0 0 0 -0.5,0.5 V 2.8710938 C 5.0525522,2.8706664 4.2499732,2.8486758 3.6386719,3.1601563 3.074246,3.4477447 2.6137687,3.9062724 2.3261719,4.4707031 1.9735602,5.1627528 2,5.9338544 2,7.3339844 v 1 5.9999996 c 0,1.4001 -0.026437,2.169258 0.3261719,2.861328 0.2876036,0.564433 0.7481121,1.022954 1.3125,1.310547 C 4.3307282,18.8585 5.09987,18.833984 6.5,18.833984 h 7 c 1.4001,0 2.169253,0.02451 2.861328,-0.328125 0.564401,-0.287599 1.024901,-0.746146 1.3125,-1.310547 C 18.026465,16.503238 18,15.734084 18,14.333984 v -5.9999996 -1 C 18,5.9338544 18.026468,5.1627572 17.673828,4.4707031 17.386235,3.906304 16.925767,3.4477512 16.361328,3.1601563 15.75001,2.8486791 14.947432,2.8706664 13.833984,2.8710938 V 1.6660156 a 0.5,0.5 0 0 0 -0.5,-0.5 0.5,0.5 0 0 0 -0.5,0.5 V 2.8339844 H 7.1660156 V 1.6660156 a 0.5,0.5 0 0 0 -0.5,-0.5 z m 0.5,2.6679688 H 12.833984 V 5 a 0.5,0.5 0 0 0 0.5,0.5 0.5,0.5 0 0 0 0.5,-0.5 V 3.8632813 c 1.030667,0.00846 1.749039,0.021815 2.074219,0.1874999 0.376361,0.1917651 0.68124,0.4985792 0.873047,0.875 C 16.97361,5.3032872 17,5.9338544 17,7.3339844 v 0.5 H 3 v -0.5 C 3,5.9338544 3.0264017,5.3032916 3.21875,4.9257812 3.4105332,4.549392 3.7154228,4.2425528 4.0917969,4.0507812 4.4169587,3.8850994 5.135337,3.8717415 6.1660156,3.8632813 V 5 a 0.5,0.5 0 0 0 0.5,0.5 0.5,0.5 0 0 0 0.5,-0.5 z M 3,8.8339844 h 14 v 5.4999996 c 0,1.4001 -0.02639,2.030678 -0.21875,2.408203 -0.1918,0.3764 -0.496647,0.681247 -0.873047,0.873047 -0.377525,0.192363 -1.008103,0.21875 -2.408203,0.21875 h -7 c -1.40013,0 -2.0306994,-0.02639 -2.4082031,-0.21875 C 3.7153847,17.423427 3.4105264,17.118555 3.21875,16.742187 3.0263992,16.364658 3,15.734084 3,14.333984 Z"
     id="path1" />
</svg>
