<svg width="32" height="32" viewBox="0 0 32 32" fill="none" xmlns="http://www.w3.org/2000/svg">
<path d="M2.66663 10.269C2.66663 8.27951 4.27946 6.66667 6.269 6.66667C7.30271 6.66667 8.22045 6.0052 8.54734 5.02454L8.66663 4.66667C8.72288 4.49791 8.75101 4.41353 8.7811 4.33867C9.16536 3.38284 10.0658 2.73383 11.0941 2.67155C11.1746 2.66667 11.2636 2.66667 11.4415 2.66667H20.5584C20.7363 2.66667 20.8253 2.66667 20.9058 2.67155C21.9341 2.73383 22.8346 3.38284 23.2188 4.33867C23.2489 4.41353 23.277 4.49791 23.3333 4.66667L23.4526 5.02454C23.7795 6.0052 24.6972 6.66667 25.7309 6.66667C27.7205 6.66667 29.3333 8.27951 29.3333 10.269V21.6C29.3333 23.8402 29.3333 24.9603 28.8973 25.816C28.5138 26.5686 27.9019 27.1805 27.1493 27.564C26.2936 28 25.1735 28 22.9333 28H9.06663C6.82642 28 5.70631 28 4.85066 27.564C4.09802 27.1805 3.48609 26.5686 3.1026 25.816C2.66663 24.9603 2.66663 23.8402 2.66663 21.6V10.269Z" stroke="white" stroke-width="2" stroke-linecap="round" stroke-linejoin="round"/>
<path d="M16 22C19.3137 22 22 19.3137 22 16C22 12.6863 19.3137 10 16 10C12.6863 10 9.99996 12.6863 9.99996 16C9.99996 19.3137 12.6863 22 16 22Z" stroke="white" stroke-width="2" stroke-linecap="round" stroke-linejoin="round"/>
</svg>
