<?xml version="1.0" encoding="UTF-8" standalone="no"?>
<svg
   width="20"
   height="20"
   viewBox="0 0 20 20"
   fill="none"
   version="1.1"
   id="svg1"
   sodipodi:docname="clock.svg"
   inkscape:version="1.4.3 (0d15f75, 2025-12-25)"
   xmlns:inkscape="http://www.inkscape.org/namespaces/inkscape"
   xmlns:sodipodi="http://sodipodi.sourceforge.net/DTD/sodipodi-0.dtd"
   xmlns="http://www.w3.org/2000/svg"
   xmlns:svg="http://www.w3.org/2000/svg">
  <defs
     id="defs1" />
  <sodipodi:namedview
     id="namedview1"
     pagecolor="#ffffff"
     bordercolor="#000000"
     borderopacity="0.25"
     inkscape:showpageshadow="2"
     inkscape:pageopacity="0.0"
     inkscape:pagecheckerboard="0"
     inkscape:deskcolor="#d1d1d1"
     inkscape:zoom="58.35"
     inkscape:cx="9.991431"
     inkscape:cy="10"
     inkscape:window-width="3440"
     inkscape:window-height="1369"
     inkscape:window-x="-8"
     inkscape:window-y="-8"
     inkscape:window-maximized="1"
     inkscape:current-layer="svg1" />
  <path
     style="baseline-shift:baseline;display:inline;overflow:visible;vector-effect:none;fill:#a4a7ae;stroke-linecap:round;stroke-linejoin:round;enable-background:accumulate;stop-color:#000000;stop-opacity:1;opacity:1"
     d="M 10,1.1660156 C 5.1274286,1.1660156 1.1660156,5.127391 1.1660156,10 c 0,4.872618 3.9614174,8.833984 8.8339844,8.833984 4.872614,0 8.833984,-3.961363 8.833984,-8.833984 0,-4.8726119 -3.961366,-8.8339844 -8.833984,-8.8339844 z m 0,1 c 4.332182,0 7.833984,3.5018163 7.833984,7.8339844 0,4.332179 -3.501798,7.833984 -7.833984,7.833984 C 5.667867,17.833984 2.1660156,14.332182 2.1660156,10 2.1660156,5.667829 5.6678714,2.1660156 10,2.1660156 Z M 10,4.5 A 0.5,0.5 0 0 0 9.5,5 v 5 a 0.50005,0.50005 0 0 0 0.2773438,0.447266 l 3.3320312,1.666015 A 0.5,0.5 0 0 0 13.78125,11.890625 0.5,0.5 0 0 0 13.556641,11.21875 L 10.5,9.6914063 V 5 A 0.5,0.5 0 0 0 10,4.5 Z"
     id="path1" />
</svg>
