<?xml version="1.0" encoding="UTF-8" standalone="no"?>
<svg
   width="23"
   height="23"
   viewBox="0 0 23 23"
   fill="none"
   version="1.1"
   id="svg1"
   sodipodi:docname="cross.svg"
   inkscape:version="1.4.3 (0d15f75, 2025-12-25)"
   xmlns:inkscape="http://www.inkscape.org/namespaces/inkscape"
   xmlns:sodipodi="http://sodipodi.sourceforge.net/DTD/sodipodi-0.dtd"
   xmlns="http://www.w3.org/2000/svg"
   xmlns:svg="http://www.w3.org/2000/svg">
  <defs
     id="defs1" />
  <sodipodi:namedview
     id="namedview1"
     pagecolor="#ffffff"
     bordercolor="#000000"
     borderopacity="0.25"
     inkscape:showpageshadow="2"
     inkscape:pageopacity="0.0"
     inkscape:pagecheckerboard="0"
     inkscape:deskcolor="#d1d1d1"
     inkscape:zoom="50.73913"
     inkscape:cx="11.490146"
     inkscape:cy="11.5"
     inkscape:window-width="3440"
     inkscape:window-height="1369"
     inkscape:window-x="-8"
     inkscape:window-y="-8"
     inkscape:window-maximized="1"
     inkscape:current-layer="svg1" />
  <path
     style="baseline-shift:baseline;display:inline;overflow:visible;vector-effect:none;fill:#aaaaaa;stroke-linecap:round;stroke-linejoin:round;enable-background:accumulate;stop-color:#000000;stop-opacity:1;opacity:1"
     d="m 0.29296875,0.29296875 a 1,1 0 0 0 0,1.41406245 L 10.085938,11.5 0.29296875,21.292969 a 1,1 0 0 0 0,1.414062 1,1 0 0 0 1.41406245,0 L 11.5,12.914063 l 9.792969,9.792968 a 1,1 0 0 0 1.414062,0 1,1 0 0 0 0,-1.414062 L 12.914063,11.5 22.707031,1.7070312 a 1,1 0 0 0 0,-1.41406245 1,1 0 0 0 -1.414062,0 L 11.5,10.085938 1.7070312,0.29296875 a 1,1 0 0 0 -1.41406245,0 z"
     id="path1" />
</svg>
