<?xml version="1.0" encoding="UTF-8" standalone="no"?>
<svg
   width="24"
   height="24"
   viewBox="0 0 24 24"
   fill="none"
   version="1.1"
   id="svg4"
   sodipodi:docname="help-circle.svg"
   inkscape:version="1.1.1 (3bf5ae0d25, 2021-09-20)"
   xmlns:inkscape="http://www.inkscape.org/namespaces/inkscape"
   xmlns:sodipodi="http://sodipodi.sourceforge.net/DTD/sodipodi-0.dtd"
   xmlns="http://www.w3.org/2000/svg"
   xmlns:svg="http://www.w3.org/2000/svg">
  <defs
     id="defs8" />
  <sodipodi:namedview
     id="namedview6"
     pagecolor="#ffffff"
     bordercolor="#666666"
     borderopacity="1.0"
     inkscape:pageshadow="2"
     inkscape:pageopacity="0.0"
     inkscape:pagecheckerboard="0"
     showgrid="false"
     inkscape:zoom="34.333333"
     inkscape:cx="11.985437"
     inkscape:cy="12.014563"
     inkscape:window-width="1920"
     inkscape:window-height="1009"
     inkscape:window-x="-8"
     inkscape:window-y="-8"
     inkscape:window-maximized="1"
     inkscape:current-layer="svg4" />
  <path
     style="color:#000000;fill:#535862;stroke-linecap:round;stroke-linejoin:round;-inkscape-stroke:none"
     d="M 12,1 C 5.9367165,1 1,5.9367165 1,12 1,18.063238 5.9367105,23 12,23 18.063244,23 23,18.063244 23,12 23,5.9367105 18.063238,1 12,1 Z m 0,2 c 4.982351,0 9,4.0176006 9,9 0,4.982345 -4.017655,9 -9,9 C 7.0176006,21 3,16.982351 3,12 3,7.0175946 7.0175946,3 12,3 Z m 0.595703,3.0527344 C 11.664878,5.8930824 10.706774,6.0683681 9.8925781,6.546875 9.0783124,7.0253969 8.4598805,7.7770626 8.1464844,8.6679688 A 1,1 0 0 0 8.7578125,9.9433594 1,1 0 0 0 10.033203,9.3320313 c 0.156804,-0.4457526 0.465614,-0.8211096 0.873047,-1.0605469 0.407403,-0.2394324 0.885789,-0.3279347 1.351563,-0.2480469 0.465762,0.079893 0.887013,0.3220247 1.191406,0.6835938 0.30432,0.3615554 0.471436,0.8185946 0.470703,1.2910156 a 1.0001,1.0001 0 0 0 0,0.00195 c 0,0.5 -0.432696,1.003308 -1.054688,1.417969 -0.621991,0.414661 -1.261718,0.632812 -1.261718,0.632812 a 1,1 0 0 0 -0.632813,1.265625 1,1 0 0 0 1.265625,0.632813 c 0,0 0.860275,-0.28185 1.738281,-0.867188 0.8776,-0.585066 1.944323,-1.581243 1.945313,-3.080078 C 15.921388,9.0574155 15.588548,8.1423653 14.980469,7.4199219 14.372263,6.6974721 13.526539,6.2124015 12.595703,6.0527344 Z M 12,16 a 1,1 0 0 0 -1,1 1,1 0 0 0 1,1 h 0.0098 a 1,1 0 0 0 1,-1 1,1 0 0 0 -1,-1 z"
     id="path2" />
</svg>
