<?xml version="1.0" encoding="UTF-8" standalone="no"?>
<svg
   width="20"
   height="20"
   viewBox="0 0 20 20"
   fill="none"
   version="1.1"
   id="svg1"
   sodipodi:docname="home.svg"
   inkscape:version="1.4.3 (0d15f75, 2025-12-25)"
   xmlns:inkscape="http://www.inkscape.org/namespaces/inkscape"
   xmlns:sodipodi="http://sodipodi.sourceforge.net/DTD/sodipodi-0.dtd"
   xmlns="http://www.w3.org/2000/svg"
   xmlns:svg="http://www.w3.org/2000/svg">
  <defs
     id="defs1" />
  <sodipodi:namedview
     id="namedview1"
     pagecolor="#ffffff"
     bordercolor="#000000"
     borderopacity="0.25"
     inkscape:showpageshadow="2"
     inkscape:pageopacity="0.0"
     inkscape:pagecheckerboard="0"
     inkscape:deskcolor="#d1d1d1"
     inkscape:zoom="58.35"
     inkscape:cx="9.991431"
     inkscape:cy="10"
     inkscape:window-width="3440"
     inkscape:window-height="1369"
     inkscape:window-x="-8"
     inkscape:window-y="-8"
     inkscape:window-maximized="1"
     inkscape:current-layer="svg1" />
  <path
     style="baseline-shift:baseline;display:inline;overflow:visible;vector-effect:none;fill:#a4a7ae;stroke-linecap:round;stroke-linejoin:round;enable-background:accumulate;stop-color:#000000;stop-opacity:1;opacity:1"
     d="M 9.5644531,1.1132812 C 9.1733707,1.2191571 8.9626908,1.4187752 8.6699219,1.6464844 L 3.0175781,6.0410156 C 2.6397689,6.334865 2.3854577,6.5182256 2.15625,6.828125 1.9754348,7.0725967 1.8417318,7.3477731 1.7597656,7.640625 1.6558651,8.0118138 1.6660156,8.3260575 1.6660156,8.8046875 v 6.0292965 c 0,0.9335 -0.041798,1.516129 0.2734375,2.134766 0.2396211,0.470304 0.6212929,0.852202 1.0917969,1.091797 0.6186642,0.315301 1.2013456,0.273437 2.1347656,0.273437 h 9.6679684 c 0.9335,0 1.516107,0.04188 2.134766,-0.273437 0.470472,-0.239587 0.85221,-0.621325 1.091797,-1.091797 0.315316,-0.618659 0.273437,-1.201266 0.273437,-2.134766 V 8.8046875 c 0,-0.47863 0.01017,-0.7928545 -0.09375,-1.1640625 C 18.158304,7.3476873 18.024701,7.0726783 17.84375,6.828125 17.614542,6.5182479 17.360218,6.3348628 16.982422,6.0410156 L 11.330078,1.6464844 C 11.037283,1.418778 10.826596,1.2191742 10.435547,1.1132812 c -0.285267,-0.077258 -0.5858508,-0.077235 -0.8710939,0 z M 10,2.7226563 c -0.067849,-0.018373 0.01384,0.010568 0.306641,0.2382812 l 5.652343,4.3964844 c 0.377804,0.2938528 0.50193,0.4047677 0.544922,0.4628906 0.06025,0.081427 0.105543,0.172029 0.132813,0.2695313 0.01948,0.069572 0.0293,0.2362137 0.0293,0.7148437 v 6.0292965 c 0,0.9335 -0.04176,1.282612 -0.08984,1.376953 -0.07981,0.156729 -0.208506,0.285421 -0.365235,0.365235 -0.09434,0.04808 -0.443453,0.08984 -1.376953,0.08984 H 5.1660156 c -0.93342,0 -1.2825773,-0.04175 -1.3769531,-0.08984 -0.156716,-0.07981 -0.2852954,-0.208338 -0.3652344,-0.365235 -0.048084,-0.09436 -0.089844,-0.443453 -0.089844,-1.376953 V 8.8046875 c 0,-0.47863 0.00982,-0.6452526 0.029297,-0.7148437 0.027314,-0.097588 0.072528,-0.188023 0.1328125,-0.2695313 0.042972,-0.058101 0.167111,-0.16904 0.5449218,-0.4628906 L 9.6933594,2.9609375 C 9.9861304,2.7332267 10.067802,2.7043004 10,2.7226563 Z M 6.6660156,13.333984 A 0.83333498,0.83333498 0 0 0 5.8339844,14.166016 0.83333498,0.83333498 0 0 0 6.6660156,15 h 6.6679684 a 0.83333498,0.83333498 0 0 0 0.832032,-0.833984 0.83333498,0.83333498 0 0 0 -0.832032,-0.832032 z"
     id="path1" />
</svg>
