<?xml version="1.0" encoding="UTF-8" standalone="no"?>
<svg
   width="20"
   height="20"
   viewBox="0 0 20 20"
   fill="none"
   version="1.1"
   id="svg1"
   sodipodi:docname="phone-incoming.svg"
   inkscape:version="1.4.3 (0d15f75, 2025-12-25)"
   xmlns:inkscape="http://www.inkscape.org/namespaces/inkscape"
   xmlns:sodipodi="http://sodipodi.sourceforge.net/DTD/sodipodi-0.dtd"
   xmlns="http://www.w3.org/2000/svg"
   xmlns:svg="http://www.w3.org/2000/svg">
  <defs
     id="defs1" />
  <sodipodi:namedview
     id="namedview1"
     pagecolor="#ffffff"
     bordercolor="#000000"
     borderopacity="0.25"
     inkscape:showpageshadow="2"
     inkscape:pageopacity="0.0"
     inkscape:pagecheckerboard="0"
     inkscape:deskcolor="#d1d1d1"
     inkscape:zoom="58.35"
     inkscape:cx="9.991431"
     inkscape:cy="10"
     inkscape:window-width="3440"
     inkscape:window-height="1369"
     inkscape:window-x="-8"
     inkscape:window-y="-8"
     inkscape:window-maximized="1"
     inkscape:current-layer="svg1" />
  <path
     style="baseline-shift:baseline;display:inline;overflow:visible;vector-effect:none;fill:#ffffff;stroke-linecap:round;stroke-linejoin:round;enable-background:accumulate;stop-color:#000000;stop-opacity:1;opacity:1"
     d="M 13.396484,2.1464844 10.478516,5.0625 a 0.5,0.5 0 0 0 -0.146485,0.3535156 0.5,0.5 0 0 0 0.146485,0.3535156 L 13.396484,8.6875 a 0.5,0.5 0 0 0 0.707032,0 0.5,0.5 0 0 0 0,-0.7070313 L 12.039063,5.9160156 H 17.5 a 0.5,0.5 0 0 0 0.5,-0.5 0.5,0.5 0 0 0 -0.5,-0.5 h -5.460937 l 2.064453,-2.0625 a 0.5,0.5 0 0 0 0,-0.7070312 0.5,0.5 0 0 0 -0.707032,0 z M 3.5664063,2.6953125 C 3.2195763,2.8707255 2.9799767,3.1293983 2.5371094,3.5722656 L 2.40625,3.703125 C 1.9648973,4.1444777 1.7007251,4.4041704 1.4921875,4.7753906 1.2470176,5.2118251 1.1059274,5.7513725 1.1074219,6.2519531 1.1086315,6.6600629 1.1946144,6.9671277 1.328125,7.4375 c 0.7400284,2.607273 2.138373,5.070003 4.1894531,7.121094 2.051076,2.051096 4.5119049,3.447452 7.1191409,4.1875 0.470368,0.133491 0.7774,0.219517 1.185547,0.220703 0.499906,0.0014 1.040441,-0.140186 1.476562,-0.384766 0.371408,-0.208538 0.630906,-0.470849 1.072266,-0.912109 l 0.130859,-0.132813 c 0.442874,-0.442873 0.701557,-0.682299 0.876953,-1.029297 0.310872,-0.614469 0.310872,-1.340609 0,-1.955078 -0.17537,-0.346947 -0.43404,-0.588436 -0.876953,-1.03125 l -0.162109,-0.162109 c -0.291441,-0.29144 -0.449637,-0.458074 -0.664063,-0.597656 -0.717052,-0.466136 -1.646229,-0.466136 -2.363281,0 -0.214608,0.139605 -0.372702,0.306195 -0.664062,0.597656 -0.0952,0.0952 -0.122957,0.120468 -0.134766,0.128906 a 0.50005,0.50005 0 0 0 -0.002,0.002 c -0.056,0.04012 -0.220854,0.06814 -0.28711,0.04883 -0.02122,-0.0062 -0.04046,-0.01447 -0.144531,-0.06445 C 10.922003,12.91858 9.8360996,12.160309 8.875,11.199219 7.913862,10.238004 7.1575825,9.1522152 6.6015625,7.9941406 6.5516723,7.8902402 6.5414928,7.8713508 6.5351562,7.8496094 6.5158313,7.7833115 6.5457306,7.618654 6.5859375,7.5625 6.5946477,7.5503359 6.6195837,7.5210413 6.7148437,7.4257812 7.0061858,7.1344492 7.1728322,6.9765663 7.3125,6.7617187 7.7787229,6.0446724 7.7787229,5.117437 7.3125,4.4003906 7.1728266,4.1855344 7.0061797,4.025711 6.7148437,3.734375 L 6.5527344,3.5722656 c -0.44287,-0.44287 -0.6824849,-0.7015418 -1.0292969,-0.8769531 -0.6144481,-0.3107901 -1.3425832,-0.3107901 -1.9570312,0 z m 0.4511718,0.8925781 c 0.331492,-0.1676698 0.7212425,-0.1676698 1.0527344,0 0.128808,0.065149 0.3325206,0.2485363 0.7753906,0.6914063 l 0.1621094,0.1621093 c 0.291344,0.2913441 0.4160103,0.4257825 0.4667969,0.5039063 0.2521171,0.3877537 0.2521171,0.8837307 0,1.2714844 C 6.4238171,6.2949293 6.2991505,6.427422 6.0078125,6.71875 5.9125525,6.81401 5.8425142,6.8812729 5.7714844,6.9804687 5.5283513,7.3200347 5.4592968,7.7279441 5.5761719,8.1289063 c 0.031983,0.1097385 0.073157,0.1949285 0.1230468,0.2988281 0.6039801,1.2579654 1.427248,2.4369306 2.4687501,3.4785156 1.0415204,1.04151 2.2205902,1.864779 3.4785152,2.46875 0.103726,0.04982 0.188451,0.09101 0.298829,0.123047 0.400944,0.116885 0.808835,0.04797 1.148437,-0.195313 0.09959,-0.07116 0.166519,-0.141128 0.261719,-0.236328 0.291239,-0.291339 0.423561,-0.415801 0.501953,-0.466797 0.387153,-0.251677 0.883999,-0.250905 1.271484,0 0.07837,0.05102 0.212547,0.175438 0.503907,0.466797 l 0.162109,0.16211 c 0.442887,0.442786 0.626376,0.646737 0.691406,0.77539 0.167728,0.331531 0.167728,0.721204 0,1.052735 -0.065,0.128602 -0.24848,0.330511 -0.691406,0.773437 l -0.130859,0.132813 c -0.441441,0.44134 -0.624724,0.619585 -0.853516,0.748046 -0.229397,0.12886 -0.723254,0.256618 -0.986328,0.25586 -0.280053,-8.14e-4 -0.443631,-0.04813 -0.914063,-0.181641 C 10.461792,17.090204 8.1534934,15.780466 6.2246094,13.851563 4.2957095,11.922653 2.9859472,9.6124499 2.2910156,7.1640625 2.1575063,6.6936948 2.1082522,6.5301502 2.1074219,6.25 2.1066363,5.9868807 2.2344112,5.4930774 2.3632813,5.2636719 2.4918236,5.0348521 2.6719339,4.8515036 3.1132813,4.4101562 L 3.2441406,4.2792969 C 3.6870133,3.8364242 3.8887681,3.6530377 4.0175781,3.5878906 Z"
     id="path1" />
</svg>
