<svg width="20" height="20" viewBox="0 0 20 20" fill="none" xmlns="http://www.w3.org/2000/svg">
<path fill-rule="evenodd" clip-rule="evenodd" d="M7.92252 2.33534C7.93248 2.34198 7.94248 2.34864 7.95251 2.35533L16.7431 8.21573C16.9975 8.38527 17.2333 8.54246 17.4144 8.68854C17.6035 8.84098 17.8263 9.05238 17.9545 9.36163C18.1241 9.77038 18.1241 10.2298 17.9545 10.6385C17.8263 10.9478 17.6035 11.1592 17.4144 11.3116C17.2333 11.4577 16.9975 11.6149 16.7432 11.7844L7.92255 17.6648C7.61165 17.8721 7.33208 18.0585 7.09486 18.1871C6.85747 18.3157 6.53163 18.4627 6.15132 18.44C5.66486 18.411 5.21548 18.1705 4.92147 17.7818C4.69162 17.478 4.63319 17.1253 4.60856 16.8564C4.58394 16.5878 4.58396 16.2518 4.58399 15.8781L4.58399 4.1581C4.58399 4.14605 4.58399 4.13404 4.58399 4.12206C4.58396 3.7484 4.58394 3.4124 4.60856 3.14372C4.63319 2.87484 4.69162 2.52218 4.92147 2.21833C5.21548 1.82968 5.66486 1.58918 6.15132 1.56014C6.53163 1.53743 6.85747 1.68444 7.09486 1.81309C7.33207 1.94165 7.61163 2.12804 7.92252 2.33534Z" fill="white"/>
</svg>
