<svg width="18" height="14" viewBox="0 0 18 14" fill="none" xmlns="http://www.w3.org/2000/svg">
<path d="M12.4956 6.36077H3.72118V3.08736H12.4956C13.0082 3.08736 13.3645 3.17158 13.5433 3.31866C13.7222 3.46573 13.833 3.73852 13.833 4.13695V5.31233C13.833 5.73228 13.7222 6.00504 13.5433 6.15212C13.3645 6.2992 13.0082 6.36203 12.4956 6.36203V6.36077ZM13.0975 0.00125858H0V14H3.72118V9.44556H10.5789L13.833 14H18L14.4123 9.42427C15.7349 9.23942 16.3289 8.85724 16.8187 8.22749C17.3086 7.59773 17.5542 6.59084 17.5542 5.24697V4.19738C17.5542 3.40036 17.4647 2.77057 17.3086 2.28786C17.1524 1.80514 16.8855 1.38529 16.5064 1.00817C16.106 0.651157 15.6602 0.399748 15.1249 0.231299C14.5898 0.0842301 13.921 0 13.0975 0V0.00125858Z" fill="white"/>
</svg>
