<svg width="20" height="17" viewBox="0 0 20 17" fill="none" xmlns="http://www.w3.org/2000/svg">
<path d="M0.513032 7.36656C0.557877 7.34414 0.602742 7.32284 0.646466 7.30266C1.40658 6.95063 2.17679 6.62102 2.94588 6.29141C2.98736 6.29141 3.05685 6.24321 3.09609 6.22751C3.15551 6.20172 3.21494 6.17706 3.27435 6.15127C3.38871 6.10195 3.50307 6.05374 3.6163 6.00441C3.84501 5.90687 4.07258 5.80933 4.30129 5.71179L5.67017 5.12545C6.58275 4.7353 7.49648 4.34403 8.40907 3.95388C9.32166 3.56374 10.2354 3.17247 11.1479 2.78232C12.0605 2.39217 12.9742 2.00091 13.8868 1.61076C14.7994 1.22061 15.7131 0.829338 16.6257 0.43919C16.8287 0.351743 17.0484 0.22169 17.2659 0.183572C17.4486 0.15106 17.6269 0.0882804 17.8107 0.0535259C18.1594 -0.01262 18.5439 -0.0395243 18.878 0.1051C18.9935 0.15555 19.1 0.22618 19.1886 0.314748C19.6124 0.734045 19.5529 1.4224 19.4633 2.01211C18.8388 6.12212 18.2143 10.2333 17.5888 14.3433C17.5035 14.9072 17.3869 15.526 16.9419 15.8826C16.5652 16.1841 16.0293 16.2178 15.564 16.09C15.0987 15.961 14.6884 15.6908 14.286 15.4251C12.6166 14.3197 10.9462 13.2143 9.27681 12.1089C8.87994 11.8465 8.43823 11.5035 8.44271 11.027C8.44495 10.74 8.61647 10.4844 8.79136 10.2568C10.2421 8.36436 12.3352 7.06386 13.8924 5.25886C14.1122 5.00437 14.2848 4.54471 13.9833 4.39785C13.8039 4.3104 13.5976 4.42924 13.4339 4.54247C11.3755 5.97189 9.3183 7.40244 7.25993 8.83186C6.58838 9.29824 5.88432 9.77808 5.07487 9.89244C4.35063 9.99558 3.62191 9.79377 2.92121 9.58749C2.33375 9.41484 1.74739 9.2377 1.16328 9.05496C0.852736 8.95854 0.532094 8.85428 0.292176 8.63566C0.0522568 8.41705 -0.0856219 8.04932 0.0590021 7.75783C0.149812 7.57509 0.325831 7.45961 0.510815 7.36544L0.513032 7.36656Z" fill="white"/>
</svg>
