<svg width="21" height="21" viewBox="0 0 21 21" fill="none" xmlns="http://www.w3.org/2000/svg">
<path d="M13.5431 14.7611C9.4477 14.7611 6.11575 11.428 6.11462 7.33255C6.11575 6.2944 6.96107 5.4502 7.99698 5.4502C8.10349 5.4502 8.20886 5.45916 8.30976 5.4771C8.53174 5.5141 8.74252 5.58921 8.93648 5.70245C8.9645 5.71926 8.98356 5.74617 8.98804 5.77757L9.42079 8.50523C9.4264 8.53663 9.41631 8.56914 9.39501 8.59269C9.15621 8.85727 8.85127 9.04786 8.51157 9.14315L8.34789 9.18912L8.40954 9.34719C8.96786 10.7688 10.1047 11.9045 11.5274 12.465L11.6855 12.5278L11.7314 12.3641C11.8267 12.0244 12.0173 11.7195 12.2819 11.4807C12.3009 11.4627 12.3267 11.4538 12.3525 11.4538C12.3581 11.4538 12.3637 11.4538 12.3705 11.4549L15.0981 11.8876C15.1306 11.8933 15.1575 11.9112 15.1744 11.9392C15.2865 12.1332 15.3616 12.3451 15.3997 12.567C15.4176 12.6657 15.4255 12.77 15.4255 12.8787C15.4255 13.9157 14.5813 14.7599 13.5431 14.7611Z" fill="white"/>
<path d="M20.8057 9.18194C20.5848 6.68634 19.4413 4.37123 17.5858 2.66377C15.7192 0.946223 13.2976 0 10.765 0C5.20646 0 0.683891 4.52258 0.683891 10.0811C0.683891 11.9466 1.19847 13.7639 2.17272 15.347L0 20.1565L6.95653 19.4155C8.16621 19.911 9.44652 20.1621 10.7638 20.1621C11.1103 20.1621 11.4657 20.1442 11.8222 20.1072C12.1361 20.0736 12.4534 20.0242 12.765 19.9615C17.4199 19.0208 20.818 14.8895 20.8449 10.1349V10.0811C20.8449 9.77837 20.8315 9.47567 20.8045 9.18305L20.8057 9.18194ZM7.22447 17.3044L3.37569 17.7147L4.52483 15.1687L4.295 14.8604C4.27818 14.838 4.26137 14.8155 4.24231 14.7898C3.24452 13.4119 2.71758 11.784 2.71758 10.0822C2.71758 5.64482 6.32758 2.03483 10.765 2.03483C14.922 2.03483 18.4457 5.27821 18.7854 9.41849C18.8034 9.64047 18.8134 9.86357 18.8134 10.0833C18.8134 10.1461 18.8123 10.2078 18.8112 10.2739C18.726 13.9859 16.1329 17.1385 12.5049 17.9412C12.228 18.0029 11.9444 18.05 11.6618 18.0802C11.3681 18.1139 11.0665 18.1307 10.7672 18.1307C9.70102 18.1307 8.66511 17.9244 7.68637 17.5163C7.57763 17.4726 7.47111 17.4255 7.37133 17.3773L7.2256 17.3067L7.22447 17.3044Z" fill="white"/>
</svg>
