<svg width="32" height="32" viewBox="0 0 32 32" fill="none" xmlns="http://www.w3.org/2000/svg">
    <g clip-path="url(#clip0_6096_15)">
        <path
            d="M0 11.581C0 7.52724 0 5.50038 0.788905 3.95207C1.48285 2.59013 2.59013 1.48285 3.95207 0.788905C5.50038 0 7.52724 0 11.581 0H20.419C24.4728 0 26.4996 0 28.0479 0.788905C29.4099 1.48285 30.5172 2.59013 31.2111 3.95207C32 5.50038 32 7.52724 32 11.581V20.419C32 24.4728 32 26.4996 31.2111 28.0479C30.5172 29.4099 29.4099 30.5172 28.0479 31.2111C26.4996 32 24.4728 32 20.419 32H11.581C7.52724 32 5.50038 32 3.95207 31.2111C2.59013 30.5172 1.48285 29.4099 0.788905 28.0479C0 26.4996 0 24.4728 0 20.419V11.581Z"
            fill="#00B33C" />
        <path fill-rule="evenodd" clip-rule="evenodd"
            d="M6.49036 18.0074H5.28093C3.39445 18.0074 4.76499 13.9843 6.35322 13.9843H8.26404C8.57033 13.9843 9.11049 14.0409 9.37661 13.28L9.78778 12.0981H7.16754C5.74857 12.0981 4.64403 12.6 3.8459 13.4419C2.46721 14.8828 1.99969 17.1332 2.33019 18.2098C2.64462 19.2055 3.49922 19.8611 4.83751 19.8773L5.87756 19.8854H7.1595L7.47394 18.9383C7.7077 18.2664 7.1836 18.0074 6.49036 18.0074ZM21.2118 16.3399L21.6069 15.0528H17.3904C16.689 15.0528 16.3746 15.2471 16.2536 15.6518L15.8585 16.9389H20.0752C20.7766 16.9389 21.091 16.7447 21.2118 16.3399ZM15.2298 18.6065L14.8347 19.8935H19.0512C19.7446 19.8935 20.067 19.6993 20.188 19.2946L20.5831 18.0074H16.3665C15.6732 18.0074 15.3588 18.2017 15.2298 18.6065ZM22.1955 13.3933L22.5905 12.1063H18.374C17.6726 12.1063 17.3582 12.3005 17.2372 12.7052L16.8421 13.9923H21.0588C21.7521 13.9923 22.0664 13.798 22.1955 13.3933ZM15.8263 13.6524C15.649 12.4544 15.0121 12.1063 13.4641 12.1063H10.6424L8.99768 16.9389H10.0377C10.6584 16.9389 10.9729 16.947 11.3035 16.0566L11.9887 13.9843H13.0368C13.9318 13.9843 13.7301 15.1095 13.2787 16.2022C12.8755 17.1656 12.1742 18.0155 11.3276 18.0155H9.57812C8.87673 18.0155 8.55426 18.2098 8.42527 18.6145L7.98989 19.9016H9.27172L10.5295 19.8935C11.642 19.8854 12.5531 19.8045 13.6173 18.8411C14.746 17.8132 16.0521 15.1742 15.8263 13.6524ZM29.9997 12.0981H27.5569L25.2591 14.5508C24.9931 14.8342 24.7189 15.1175 24.4529 15.4494H24.4287L25.5735 12.0981H23.5821L20.8975 19.8935H22.8888L23.7434 17.4408L24.6302 16.688L25.3317 18.906C25.5493 19.5941 25.7751 19.8935 26.2588 19.8935H27.7826L26.2186 15.5384L29.9997 12.0981Z"
            fill="white" />
    </g>
    <defs>
        <clipPath id="clip0_6096_15">
            <rect width="32" height="32" fill="white" />
        </clipPath>
    </defs>
</svg>