<svg width="429" height="301" viewBox="0 0 429 301" fill="none" xmlns="http://www.w3.org/2000/svg">
<g clip-path="url(#clip0_2_804)">
<path d="M85.6464 292.559C85.6464 293.854 85.4864 295.021 85.1824 296.06C84.8784 297.099 84.4144 297.978 83.8064 298.714C83.1984 299.449 82.4305 300.009 81.5185 300.392C80.6065 300.776 79.5345 300.984 78.3185 300.984C77.1026 300.984 76.0786 300.808 75.1986 300.44C74.3186 300.073 73.5986 299.561 73.0226 298.874C72.4466 298.186 72.0146 297.339 71.7426 296.316C71.4547 295.308 71.3267 294.125 71.3267 292.814C71.3267 291.503 71.4707 290.4 71.7906 289.377C72.0946 288.354 72.5586 287.474 73.1666 286.755C73.7746 286.036 74.5426 285.476 75.4546 285.076C76.3666 284.693 77.4385 284.485 78.6705 284.485C79.9025 284.485 80.8785 284.661 81.7585 285.012C82.6384 285.364 83.3584 285.892 83.9504 286.563C84.5424 287.235 84.9584 288.082 85.2464 289.089C85.5344 290.096 85.6784 291.248 85.6784 292.543L85.6464 292.559ZM83.3904 292.702C83.3904 291.791 83.3104 290.944 83.1504 290.176C82.9904 289.393 82.7184 288.721 82.3505 288.146C81.9825 287.57 81.4705 287.123 80.8465 286.803C80.2225 286.483 79.4385 286.323 78.5265 286.323C77.6145 286.323 76.8306 286.499 76.2066 286.851C75.5826 287.203 75.0706 287.666 74.6866 288.242C74.2866 288.817 74.0146 289.489 73.8386 290.272C73.6626 291.04 73.5826 291.855 73.5826 292.702C73.5826 293.646 73.6626 294.509 73.8226 295.308C73.9826 296.108 74.2386 296.779 74.6066 297.355C74.9746 297.93 75.4706 298.378 76.0946 298.698C76.7186 299.018 77.5025 299.177 78.4305 299.177C79.3585 299.177 80.1425 299.002 80.7825 298.65C81.4225 298.298 81.9345 297.834 82.3185 297.243C82.7024 296.651 82.9744 295.964 83.1504 295.196C83.3104 294.413 83.3904 293.598 83.3904 292.734V292.702Z" fill="white"/>
<path d="M104.766 300.44C104.766 300.44 104.766 300.568 104.734 300.616C104.702 300.664 104.654 300.712 104.574 300.744C104.494 300.776 104.382 300.808 104.222 300.824C104.062 300.84 103.87 300.856 103.63 300.856C103.422 300.856 103.246 300.856 103.102 300.824C102.958 300.792 102.862 300.776 102.766 300.744C102.686 300.712 102.622 300.648 102.574 300.584C102.526 300.52 102.494 300.44 102.462 300.344L100.99 296.571C100.814 296.14 100.638 295.756 100.446 295.388C100.254 295.021 100.046 294.717 99.7901 294.461C99.5341 294.205 99.2301 293.997 98.8781 293.853C98.5262 293.71 98.1102 293.646 97.6302 293.646H96.2062V300.472C96.2062 300.472 96.1902 300.6 96.1582 300.648C96.1262 300.696 96.0622 300.744 95.9822 300.76C95.9022 300.776 95.7902 300.808 95.6622 300.84C95.5182 300.856 95.3582 300.872 95.1502 300.872C94.9422 300.872 94.7662 300.872 94.6382 300.84C94.5102 300.808 94.3982 300.792 94.3182 300.76C94.2382 300.728 94.1742 300.696 94.1422 300.648C94.1102 300.6 94.0942 300.536 94.0942 300.472V285.652C94.0942 285.332 94.1742 285.108 94.3502 284.98C94.5262 284.852 94.7022 284.788 94.8942 284.788H98.3022C98.7021 284.788 99.0381 284.788 99.3101 284.82C99.5821 284.852 99.8221 284.868 100.03 284.884C100.654 284.996 101.198 285.156 101.678 285.396C102.158 285.62 102.558 285.924 102.878 286.275C103.198 286.627 103.438 287.043 103.598 287.49C103.758 287.954 103.838 288.45 103.838 289.009C103.838 289.569 103.758 290.032 103.614 290.448C103.47 290.88 103.262 291.247 102.99 291.567C102.718 291.887 102.398 292.175 102.014 292.415C101.63 292.654 101.214 292.862 100.734 293.022C101.006 293.134 101.23 293.278 101.454 293.47C101.662 293.646 101.87 293.853 102.062 294.109C102.254 294.349 102.43 294.637 102.59 294.957C102.75 295.276 102.926 295.644 103.086 296.044L104.526 299.577C104.638 299.865 104.718 300.089 104.75 300.201C104.782 300.313 104.798 300.408 104.798 300.472L104.766 300.44ZM101.55 289.185C101.55 288.562 101.406 288.034 101.134 287.602C100.862 287.171 100.382 286.851 99.7261 286.675C99.5181 286.611 99.2941 286.579 99.0221 286.547C98.7661 286.531 98.4142 286.515 97.9982 286.515H96.2062V291.903H98.2862C98.8461 291.903 99.3261 291.839 99.7421 291.695C100.158 291.567 100.494 291.375 100.766 291.12C101.038 290.88 101.23 290.592 101.358 290.256C101.486 289.921 101.55 289.569 101.55 289.185Z" fill="white"/>
<path d="M124.734 286.915C124.734 287.075 124.734 287.203 124.702 287.331C124.686 287.458 124.654 287.554 124.622 287.634C124.59 287.714 124.542 287.762 124.494 287.81C124.446 287.858 124.398 287.858 124.334 287.858C124.238 287.858 124.062 287.778 123.838 287.618C123.614 287.458 123.294 287.283 122.91 287.091C122.526 286.899 122.062 286.723 121.518 286.563C120.974 286.403 120.334 286.323 119.598 286.323C118.718 286.323 117.918 286.483 117.214 286.803C116.51 287.123 115.918 287.57 115.438 288.146C114.958 288.721 114.574 289.393 114.318 290.176C114.062 290.96 113.934 291.807 113.934 292.734C113.934 293.758 114.078 294.669 114.366 295.452C114.654 296.252 115.054 296.907 115.55 297.451C116.046 297.994 116.654 298.41 117.358 298.682C118.062 298.97 118.814 299.097 119.662 299.097C120.158 299.097 120.654 299.034 121.166 298.922C121.678 298.794 122.142 298.618 122.59 298.378V293.71H118.878C118.734 293.71 118.638 293.646 118.558 293.502C118.494 293.358 118.446 293.15 118.446 292.846C118.446 292.686 118.446 292.558 118.478 292.447C118.494 292.335 118.526 292.239 118.558 292.175C118.59 292.111 118.638 292.047 118.686 292.015C118.734 291.983 118.798 291.967 118.878 291.967H123.966C124.062 291.967 124.142 291.983 124.238 292.015C124.334 292.047 124.414 292.095 124.494 292.159C124.574 292.223 124.622 292.319 124.67 292.431C124.718 292.543 124.734 292.686 124.734 292.83V298.938C124.734 299.145 124.702 299.337 124.622 299.497C124.542 299.657 124.398 299.785 124.158 299.913C123.918 300.041 123.614 300.169 123.23 300.297C122.846 300.424 122.462 300.552 122.046 300.648C121.646 300.744 121.23 300.824 120.814 300.872C120.398 300.92 119.998 300.952 119.582 300.952C118.35 300.952 117.23 300.76 116.27 300.376C115.31 299.993 114.478 299.449 113.806 298.73C113.134 298.026 112.622 297.179 112.27 296.188C111.918 295.196 111.742 294.093 111.742 292.862C111.742 291.631 111.934 290.448 112.318 289.409C112.702 288.37 113.246 287.49 113.934 286.771C114.638 286.052 115.47 285.476 116.446 285.076C117.422 284.677 118.51 284.469 119.694 284.469C120.302 284.469 120.878 284.517 121.422 284.629C121.966 284.741 122.43 284.868 122.846 285.012C123.262 285.156 123.614 285.316 123.902 285.476C124.19 285.652 124.382 285.78 124.494 285.892C124.606 286.004 124.67 286.115 124.718 286.259C124.766 286.403 124.782 286.595 124.782 286.867L124.734 286.915Z" fill="white"/>
<path d="M145.773 300.009C145.837 300.185 145.869 300.344 145.885 300.456C145.885 300.568 145.853 300.648 145.789 300.712C145.725 300.776 145.613 300.808 145.453 300.824C145.293 300.84 145.101 300.856 144.845 300.856C144.589 300.856 144.381 300.856 144.237 300.84C144.077 300.84 143.965 300.808 143.885 300.776C143.805 300.744 143.741 300.712 143.709 300.664C143.677 300.616 143.629 300.552 143.597 300.472L142.221 296.571H135.565L134.254 300.424C134.254 300.424 134.19 300.568 134.158 300.616C134.11 300.664 134.062 300.712 133.982 300.76C133.902 300.792 133.79 300.824 133.646 300.84C133.502 300.84 133.31 300.872 133.086 300.872C132.862 300.872 132.654 300.872 132.494 300.84C132.334 300.808 132.238 300.776 132.174 300.728C132.11 300.664 132.078 300.584 132.094 300.472C132.094 300.36 132.142 300.217 132.206 300.041L137.581 285.156C137.613 285.06 137.661 284.996 137.709 284.932C137.757 284.868 137.837 284.836 137.949 284.804C138.045 284.772 138.189 284.741 138.349 284.741C138.509 284.741 138.717 284.725 138.957 284.725C139.213 284.725 139.437 284.725 139.613 284.741C139.789 284.741 139.933 284.772 140.029 284.804C140.141 284.836 140.221 284.884 140.285 284.948C140.349 285.012 140.381 285.092 140.429 285.172L145.805 300.041L145.773 300.009ZM138.877 286.883L136.109 294.861H141.677L138.877 286.883Z" fill="white"/>
<path d="M165.629 299.881C165.629 300.041 165.597 300.185 165.549 300.297C165.501 300.408 165.421 300.504 165.325 300.584C165.229 300.664 165.133 300.712 165.021 300.744C164.909 300.776 164.797 300.792 164.685 300.792H163.981C163.757 300.792 163.565 300.776 163.405 300.728C163.245 300.68 163.085 300.6 162.925 300.472C162.781 300.36 162.621 300.185 162.477 299.993C162.333 299.785 162.173 299.529 161.997 299.193L157.101 290.08C156.845 289.617 156.589 289.121 156.333 288.61C156.077 288.098 155.837 287.586 155.613 287.107H155.581C155.581 287.698 155.613 288.306 155.613 288.929C155.613 289.553 155.613 290.16 155.613 290.768V300.44C155.613 300.44 155.597 300.552 155.565 300.6C155.533 300.648 155.469 300.696 155.389 300.728C155.309 300.76 155.197 300.776 155.069 300.808C154.941 300.824 154.765 300.84 154.557 300.84C154.349 300.84 154.173 300.84 154.045 300.808C153.917 300.776 153.805 300.76 153.725 300.728C153.645 300.696 153.597 300.664 153.549 300.6C153.517 300.552 153.501 300.488 153.501 300.44V285.668C153.501 285.332 153.597 285.108 153.789 284.964C153.981 284.82 154.173 284.757 154.397 284.757H155.453C155.693 284.757 155.901 284.772 156.077 284.82C156.253 284.868 156.397 284.932 156.525 285.028C156.653 285.124 156.781 285.252 156.909 285.428C157.037 285.604 157.165 285.812 157.293 286.067L161.053 293.102C161.277 293.534 161.501 293.949 161.725 294.365C161.933 294.781 162.141 295.18 162.349 295.58C162.557 295.98 162.749 296.364 162.941 296.747C163.133 297.131 163.325 297.515 163.517 297.898C163.517 297.243 163.485 296.571 163.485 295.868C163.485 295.164 163.485 294.477 163.485 293.837V285.156C163.485 285.156 163.501 285.044 163.533 284.996C163.565 284.948 163.629 284.9 163.709 284.868C163.789 284.836 163.901 284.804 164.029 284.788C164.157 284.788 164.333 284.772 164.557 284.772C164.749 284.772 164.909 284.772 165.053 284.788C165.197 284.804 165.309 284.836 165.373 284.868C165.453 284.9 165.501 284.948 165.549 284.996C165.581 285.044 165.597 285.092 165.597 285.156V299.929L165.629 299.881Z" fill="white"/>
<path d="M177.101 300.44C177.101 300.44 177.085 300.568 177.053 300.616C177.021 300.664 176.957 300.712 176.877 300.728C176.797 300.744 176.685 300.776 176.557 300.808C176.413 300.824 176.253 300.84 176.045 300.84C175.837 300.84 175.677 300.84 175.533 300.808C175.389 300.792 175.277 300.76 175.197 300.728C175.117 300.696 175.053 300.664 175.021 300.616C174.989 300.568 174.973 300.504 174.973 300.44V285.06C174.973 285.06 174.989 284.932 175.021 284.884C175.053 284.836 175.117 284.788 175.213 284.772C175.309 284.756 175.405 284.725 175.549 284.693C175.693 284.661 175.853 284.661 176.045 284.661C176.253 284.661 176.429 284.661 176.557 284.693C176.701 284.709 176.797 284.741 176.877 284.772C176.957 284.804 177.021 284.836 177.053 284.884C177.085 284.932 177.101 284.996 177.101 285.06V300.44Z" fill="white"/>
<path d="M197.132 298.49C197.132 298.618 197.132 298.746 197.132 298.842C197.132 298.938 197.116 299.034 197.084 299.097C197.068 299.177 197.036 299.241 197.004 299.289C196.972 299.353 196.908 299.417 196.828 299.497C196.748 299.577 196.572 299.705 196.316 299.881C196.06 300.057 195.724 300.217 195.324 300.376C194.924 300.536 194.476 300.68 193.98 300.792C193.484 300.904 192.924 300.952 192.316 300.952C191.276 300.952 190.332 300.776 189.5 300.44C188.668 300.105 187.948 299.577 187.357 298.906C186.765 298.234 186.317 297.387 185.997 296.396C185.677 295.404 185.517 294.253 185.517 292.958C185.517 291.663 185.693 290.448 186.029 289.409C186.365 288.37 186.845 287.49 187.469 286.771C188.092 286.052 188.828 285.492 189.692 285.124C190.556 284.741 191.516 284.549 192.556 284.549C193.02 284.549 193.468 284.597 193.9 284.677C194.332 284.757 194.748 284.868 195.116 284.996C195.484 285.124 195.82 285.284 196.108 285.46C196.396 285.636 196.604 285.78 196.7 285.892C196.812 286.004 196.876 286.083 196.924 286.147C196.956 286.211 196.988 286.275 197.004 286.355C197.02 286.435 197.036 286.531 197.052 286.627C197.052 286.739 197.068 286.867 197.068 287.011C197.068 287.171 197.068 287.315 197.036 287.426C197.02 287.538 196.988 287.634 196.956 287.714C196.924 287.794 196.876 287.842 196.844 287.89C196.796 287.922 196.748 287.938 196.668 287.938C196.556 287.938 196.396 287.858 196.188 287.698C195.98 287.538 195.708 287.363 195.388 287.171C195.052 286.979 194.668 286.803 194.188 286.643C193.708 286.483 193.164 286.403 192.492 286.403C191.772 286.403 191.132 286.547 190.54 286.835C189.948 287.123 189.452 287.538 189.036 288.098C188.62 288.642 188.3 289.329 188.077 290.112C187.853 290.912 187.74 291.823 187.74 292.846C187.74 293.869 187.853 294.765 188.077 295.532C188.3 296.3 188.604 296.971 189.02 297.483C189.436 298.01 189.932 298.394 190.54 298.666C191.132 298.938 191.82 299.065 192.572 299.065C193.212 299.065 193.772 298.986 194.252 298.826C194.732 298.666 195.132 298.49 195.468 298.298C195.804 298.106 196.076 297.93 196.3 297.77C196.524 297.611 196.684 297.531 196.812 297.531C196.876 297.531 196.924 297.531 196.956 297.563C197.004 297.595 197.036 297.643 197.052 297.707C197.084 297.771 197.1 297.882 197.1 297.994C197.1 298.122 197.116 298.282 197.116 298.458L197.132 298.49Z" fill="white"/>
<path d="M226.54 298.49C226.54 298.618 226.54 298.746 226.54 298.842C226.54 298.938 226.524 299.034 226.492 299.097C226.476 299.177 226.444 299.241 226.412 299.289C226.38 299.353 226.316 299.417 226.236 299.497C226.156 299.577 225.98 299.705 225.724 299.881C225.468 300.057 225.132 300.217 224.732 300.376C224.332 300.536 223.884 300.68 223.388 300.792C222.892 300.904 222.332 300.952 221.724 300.952C220.684 300.952 219.74 300.776 218.908 300.44C218.076 300.105 217.356 299.577 216.764 298.906C216.172 298.234 215.724 297.387 215.404 296.396C215.084 295.404 214.924 294.253 214.924 292.958C214.924 291.663 215.1 290.448 215.436 289.409C215.772 288.37 216.252 287.49 216.876 286.771C217.5 286.052 218.236 285.492 219.1 285.124C219.964 284.741 220.924 284.549 221.964 284.549C222.428 284.549 222.876 284.597 223.308 284.677C223.74 284.757 224.156 284.868 224.524 284.996C224.892 285.124 225.228 285.284 225.516 285.46C225.804 285.636 226.012 285.78 226.108 285.892C226.22 286.004 226.284 286.083 226.332 286.147C226.364 286.211 226.396 286.275 226.412 286.355C226.428 286.435 226.444 286.531 226.46 286.627C226.46 286.739 226.476 286.867 226.476 287.011C226.476 287.171 226.476 287.315 226.444 287.426C226.428 287.538 226.396 287.634 226.364 287.714C226.332 287.794 226.284 287.842 226.252 287.89C226.204 287.922 226.156 287.938 226.076 287.938C225.964 287.938 225.804 287.858 225.596 287.698C225.388 287.538 225.116 287.363 224.796 287.171C224.46 286.979 224.076 286.803 223.596 286.643C223.116 286.483 222.572 286.403 221.9 286.403C221.18 286.403 220.54 286.547 219.948 286.835C219.356 287.123 218.86 287.538 218.444 288.098C218.028 288.642 217.708 289.329 217.484 290.112C217.26 290.912 217.148 291.823 217.148 292.846C217.148 293.869 217.26 294.765 217.484 295.532C217.708 296.3 218.012 296.971 218.428 297.483C218.844 298.01 219.34 298.394 219.948 298.666C220.54 298.938 221.228 299.065 221.98 299.065C222.62 299.065 223.18 298.986 223.66 298.826C224.14 298.666 224.54 298.49 224.876 298.298C225.212 298.106 225.484 297.93 225.708 297.77C225.932 297.611 226.092 297.531 226.22 297.531C226.284 297.531 226.332 297.531 226.364 297.563C226.412 297.595 226.444 297.643 226.46 297.707C226.492 297.771 226.508 297.882 226.508 297.994C226.508 298.122 226.524 298.282 226.524 298.458L226.54 298.49Z" fill="white"/>
<path d="M246.443 300.009C246.507 300.185 246.539 300.344 246.555 300.456C246.555 300.568 246.523 300.648 246.459 300.712C246.395 300.776 246.283 300.808 246.123 300.824C245.963 300.84 245.771 300.856 245.515 300.856C245.259 300.856 245.051 300.856 244.907 300.84C244.747 300.84 244.635 300.808 244.555 300.776C244.475 300.744 244.411 300.712 244.379 300.664C244.347 300.616 244.299 300.552 244.267 300.472L242.891 296.571H236.236L234.924 300.424C234.924 300.424 234.86 300.568 234.828 300.616C234.78 300.664 234.732 300.712 234.652 300.76C234.572 300.792 234.46 300.824 234.316 300.84C234.172 300.84 233.98 300.872 233.756 300.872C233.532 300.872 233.324 300.872 233.164 300.84C233.004 300.808 232.908 300.776 232.844 300.728C232.78 300.664 232.748 300.584 232.764 300.472C232.764 300.36 232.812 300.217 232.876 300.041L238.252 285.156C238.284 285.06 238.332 284.996 238.38 284.932C238.428 284.868 238.508 284.836 238.62 284.804C238.716 284.772 238.86 284.741 239.02 284.741C239.18 284.741 239.388 284.725 239.628 284.725C239.884 284.725 240.108 284.725 240.284 284.741C240.46 284.741 240.604 284.772 240.7 284.804C240.812 284.836 240.892 284.884 240.956 284.948C241.02 285.012 241.052 285.092 241.1 285.172L246.475 300.041L246.443 300.009ZM239.548 286.883L236.78 294.861H242.347L239.548 286.883Z" fill="white"/>
<path d="M262.795 296.268C262.795 297.019 262.651 297.691 262.379 298.266C262.107 298.858 261.723 299.353 261.227 299.753C260.731 300.169 260.155 300.472 259.499 300.68C258.843 300.888 258.123 300.984 257.355 300.984C256.811 300.984 256.315 300.936 255.867 300.84C255.419 300.744 255.003 300.632 254.635 300.504C254.267 300.376 253.979 300.233 253.723 300.089C253.483 299.945 253.307 299.833 253.211 299.737C253.115 299.641 253.051 299.513 253.003 299.353C252.955 299.193 252.939 299.002 252.939 298.746C252.939 298.57 252.939 298.41 252.971 298.298C252.971 298.186 253.019 298.074 253.051 298.01C253.083 297.93 253.131 297.882 253.179 297.85C253.227 297.818 253.291 297.802 253.355 297.802C253.467 297.802 253.627 297.866 253.851 298.01C254.059 298.154 254.331 298.298 254.667 298.474C255.003 298.634 255.403 298.794 255.867 298.938C256.331 299.081 256.875 299.161 257.483 299.161C257.947 299.161 258.363 299.097 258.747 298.97C259.131 298.842 259.467 298.666 259.739 298.442C260.011 298.218 260.235 297.93 260.379 297.611C260.523 297.275 260.603 296.907 260.603 296.475C260.603 296.028 260.507 295.628 260.299 295.308C260.091 294.989 259.819 294.701 259.483 294.461C259.147 294.221 258.763 293.997 258.331 293.79C257.899 293.582 257.451 293.39 257.003 293.166C256.555 292.958 256.107 292.718 255.675 292.463C255.243 292.207 254.859 291.903 254.523 291.551C254.187 291.2 253.915 290.8 253.707 290.336C253.499 289.873 253.387 289.313 253.387 288.658C253.387 288.002 253.515 287.394 253.755 286.867C253.995 286.339 254.331 285.908 254.763 285.556C255.195 285.204 255.707 284.932 256.315 284.741C256.907 284.549 257.563 284.469 258.251 284.469C258.603 284.469 258.971 284.501 259.323 284.565C259.691 284.629 260.027 284.709 260.331 284.82C260.651 284.916 260.939 285.044 261.179 285.172C261.435 285.3 261.595 285.412 261.675 285.476C261.755 285.556 261.803 285.62 261.835 285.668C261.867 285.716 261.883 285.764 261.899 285.844C261.915 285.908 261.931 286.004 261.931 286.099C261.931 286.195 261.931 286.323 261.931 286.483C261.931 286.627 261.931 286.755 261.915 286.883C261.915 286.995 261.883 287.091 261.867 287.171C261.835 287.251 261.803 287.315 261.755 287.347C261.707 287.378 261.659 287.41 261.595 287.41C261.499 287.41 261.355 287.347 261.163 287.235C260.971 287.123 260.731 286.995 260.443 286.851C260.155 286.707 259.835 286.579 259.451 286.451C259.067 286.323 258.635 286.275 258.155 286.275C257.707 286.275 257.323 286.339 256.987 286.451C256.651 286.563 256.379 286.723 256.171 286.931C255.963 287.123 255.803 287.363 255.691 287.634C255.579 287.906 255.531 288.194 255.531 288.498C255.531 288.945 255.627 289.329 255.835 289.649C256.043 289.968 256.315 290.256 256.651 290.496C256.987 290.736 257.387 290.976 257.819 291.184C258.251 291.391 258.699 291.599 259.163 291.807C259.627 292.015 260.059 292.255 260.507 292.495C260.939 292.75 261.339 293.038 261.675 293.39C262.027 293.726 262.299 294.141 262.507 294.605C262.715 295.069 262.827 295.628 262.827 296.252L262.795 296.268Z" fill="white"/>
<path d="M282.459 300.44C282.459 300.44 282.459 300.568 282.411 300.616C282.379 300.664 282.315 300.712 282.235 300.728C282.155 300.76 282.043 300.776 281.915 300.808C281.771 300.824 281.611 300.84 281.419 300.84C281.211 300.84 281.035 300.84 280.891 300.808C280.747 300.776 280.651 300.76 280.571 300.728C280.491 300.696 280.427 300.664 280.395 300.616C280.363 300.568 280.347 300.504 280.347 300.44V293.342H273.051V300.44C273.051 300.44 273.051 300.568 273.003 300.616C272.955 300.664 272.907 300.712 272.827 300.728C272.747 300.744 272.635 300.776 272.507 300.808C272.363 300.824 272.203 300.84 271.995 300.84C271.787 300.84 271.627 300.84 271.483 300.808C271.339 300.776 271.227 300.76 271.147 300.728C271.067 300.696 271.003 300.664 270.971 300.616C270.939 300.568 270.923 300.504 270.923 300.44V285.06C270.923 285.06 270.923 284.932 270.971 284.884C271.019 284.836 271.067 284.788 271.147 284.772C271.227 284.756 271.339 284.725 271.483 284.693C271.627 284.661 271.787 284.661 271.995 284.661C272.203 284.661 272.379 284.661 272.507 284.693C272.635 284.709 272.747 284.741 272.827 284.772C272.907 284.804 272.971 284.836 273.003 284.884C273.035 284.932 273.051 284.996 273.051 285.06V291.471H280.347V285.06C280.347 285.06 280.347 284.932 280.395 284.884C280.443 284.836 280.491 284.788 280.571 284.772C280.651 284.756 280.763 284.725 280.891 284.693C281.019 284.661 281.195 284.661 281.419 284.661C281.611 284.661 281.787 284.661 281.915 284.693C282.043 284.709 282.155 284.741 282.235 284.772C282.315 284.804 282.379 284.836 282.411 284.884C282.443 284.932 282.459 284.996 282.459 285.06V300.44Z" fill="white"/>
<path d="M309.226 300.44C309.226 300.44 309.226 300.568 309.178 300.616C309.146 300.664 309.082 300.712 309.002 300.728C308.922 300.76 308.81 300.776 308.682 300.808C308.554 300.84 308.378 300.84 308.17 300.84C307.978 300.84 307.802 300.84 307.658 300.808C307.514 300.776 307.402 300.76 307.322 300.728C307.242 300.696 307.178 300.664 307.146 300.616C307.114 300.568 307.098 300.504 307.098 300.44V286.483H307.066L301.418 300.488C301.418 300.488 301.354 300.6 301.306 300.632C301.258 300.68 301.194 300.712 301.114 300.744C301.034 300.776 300.922 300.792 300.81 300.808C300.698 300.808 300.554 300.824 300.378 300.824C300.202 300.824 300.058 300.824 299.93 300.792C299.802 300.76 299.706 300.76 299.626 300.728C299.546 300.696 299.482 300.664 299.434 300.616C299.386 300.568 299.354 300.536 299.338 300.488L293.947 286.483V300.44C293.947 300.44 293.947 300.568 293.899 300.616C293.867 300.664 293.803 300.712 293.723 300.728C293.643 300.76 293.531 300.776 293.387 300.808C293.243 300.824 293.083 300.84 292.859 300.84C292.635 300.84 292.491 300.84 292.347 300.808C292.203 300.792 292.107 300.76 292.027 300.728C291.947 300.696 291.899 300.664 291.867 300.616C291.835 300.568 291.819 300.504 291.819 300.44V285.716C291.819 285.364 291.915 285.124 292.091 284.98C292.267 284.836 292.475 284.757 292.715 284.757H294.027C294.299 284.757 294.523 284.788 294.73 284.836C294.938 284.884 295.114 284.964 295.258 285.076C295.402 285.188 295.53 285.316 295.642 285.492C295.754 285.668 295.834 285.86 295.914 286.067L300.49 297.659H300.554L305.322 286.099C305.418 285.86 305.514 285.636 305.626 285.46C305.738 285.284 305.85 285.156 305.978 285.044C306.106 284.932 306.25 284.868 306.41 284.82C306.57 284.772 306.746 284.757 306.954 284.757H308.33C308.458 284.757 308.57 284.772 308.682 284.804C308.794 284.836 308.89 284.9 308.97 284.98C309.05 285.06 309.114 285.156 309.162 285.284C309.21 285.396 309.242 285.556 309.242 285.732V300.456L309.226 300.44Z" fill="white"/>
<path d="M327.482 299.881C327.482 300.025 327.482 300.153 327.45 300.265C327.45 300.376 327.402 300.472 327.37 300.536C327.322 300.616 327.274 300.664 327.226 300.696C327.178 300.728 327.114 300.744 327.05 300.744H319.354C319.162 300.744 318.986 300.68 318.81 300.552C318.634 300.424 318.554 300.201 318.554 299.881V285.604C318.554 285.284 318.634 285.06 318.81 284.932C318.986 284.804 319.162 284.741 319.354 284.741H326.954C326.954 284.741 327.082 284.741 327.13 284.789C327.178 284.82 327.226 284.884 327.258 284.948C327.29 285.028 327.322 285.124 327.338 285.22C327.354 285.316 327.37 285.476 327.37 285.636C327.37 285.78 327.37 285.908 327.338 286.02C327.322 286.131 327.29 286.227 327.258 286.291C327.226 286.355 327.178 286.419 327.13 286.451C327.082 286.483 327.018 286.499 326.954 286.499H320.682V291.519H326.058C326.058 291.519 326.186 291.535 326.234 291.583C326.282 291.615 326.33 291.679 326.378 291.743C326.41 291.807 326.442 291.903 326.458 292.015C326.474 292.127 326.49 292.271 326.49 292.431C326.49 292.574 326.49 292.702 326.458 292.814C326.458 292.926 326.41 293.006 326.378 293.07C326.346 293.134 326.298 293.182 326.234 293.214C326.186 293.246 326.122 293.262 326.058 293.262H320.682V298.986H327.034C327.034 298.986 327.162 299.002 327.21 299.034C327.258 299.065 327.306 299.113 327.354 299.193C327.402 299.273 327.418 299.353 327.434 299.465C327.45 299.577 327.466 299.721 327.466 299.881H327.482Z" fill="white"/>
<path d="M346.698 300.44C346.698 300.44 346.698 300.568 346.666 300.616C346.634 300.664 346.586 300.712 346.506 300.744C346.426 300.776 346.314 300.808 346.154 300.824C346.01 300.824 345.802 300.856 345.562 300.856C345.354 300.856 345.178 300.856 345.034 300.824C344.906 300.824 344.794 300.776 344.698 300.744C344.618 300.712 344.554 300.648 344.506 300.584C344.458 300.52 344.426 300.44 344.394 300.344L342.922 296.571C342.746 296.14 342.57 295.756 342.378 295.388C342.186 295.021 341.978 294.717 341.722 294.461C341.466 294.205 341.162 293.997 340.81 293.853C340.458 293.71 340.042 293.646 339.562 293.646H338.138V300.472C338.138 300.472 338.122 300.6 338.074 300.648C338.042 300.696 337.978 300.744 337.898 300.76C337.818 300.792 337.722 300.808 337.578 300.84C337.434 300.872 337.274 300.872 337.066 300.872C336.858 300.872 336.682 300.872 336.554 300.84C336.426 300.824 336.314 300.792 336.234 300.76C336.154 300.728 336.09 300.696 336.058 300.648C336.026 300.6 336.01 300.536 336.01 300.472V285.652C336.01 285.332 336.09 285.108 336.266 284.98C336.442 284.852 336.618 284.788 336.81 284.788H340.218C340.618 284.788 340.954 284.788 341.226 284.82C341.498 284.836 341.738 284.868 341.946 284.884C342.57 284.996 343.114 285.156 343.594 285.396C344.074 285.636 344.474 285.924 344.794 286.275C345.114 286.627 345.354 287.043 345.514 287.49C345.674 287.954 345.754 288.45 345.754 289.009C345.754 289.569 345.674 290.032 345.53 290.448C345.386 290.88 345.178 291.247 344.906 291.567C344.634 291.887 344.314 292.175 343.93 292.415C343.546 292.654 343.13 292.862 342.65 293.022C342.922 293.134 343.146 293.278 343.37 293.47C343.578 293.646 343.786 293.853 343.978 294.109C344.17 294.349 344.346 294.637 344.506 294.957C344.666 295.276 344.842 295.644 345.002 296.044L346.442 299.577C346.554 299.865 346.634 300.089 346.666 300.201C346.698 300.313 346.714 300.408 346.714 300.472L346.698 300.44ZM343.498 289.185C343.498 288.562 343.354 288.034 343.082 287.602C342.81 287.171 342.33 286.851 341.674 286.675C341.466 286.611 341.242 286.579 340.97 286.547C340.714 286.531 340.362 286.515 339.946 286.515H338.154V291.903H340.234C340.794 291.903 341.274 291.839 341.69 291.695C342.09 291.567 342.442 291.375 342.714 291.12C342.986 290.864 343.178 290.592 343.322 290.256C343.45 289.921 343.514 289.569 343.514 289.185H343.498Z" fill="white"/>
<path d="M363.785 299.881C363.785 300.025 363.785 300.153 363.753 300.265C363.753 300.376 363.705 300.472 363.673 300.536C363.625 300.616 363.577 300.664 363.529 300.696C363.481 300.728 363.417 300.744 363.353 300.744H355.657C355.465 300.744 355.289 300.68 355.113 300.552C354.937 300.424 354.857 300.201 354.857 299.881V285.604C354.857 285.284 354.937 285.06 355.113 284.932C355.289 284.804 355.465 284.741 355.657 284.741H363.257C363.257 284.741 363.385 284.741 363.433 284.789C363.481 284.82 363.529 284.884 363.561 284.948C363.593 285.028 363.625 285.124 363.641 285.22C363.657 285.316 363.673 285.476 363.673 285.636C363.673 285.78 363.673 285.908 363.641 286.02C363.625 286.131 363.593 286.227 363.561 286.291C363.529 286.355 363.481 286.419 363.433 286.451C363.385 286.483 363.321 286.499 363.257 286.499H356.985V291.519H362.361C362.361 291.519 362.489 291.535 362.537 291.583C362.585 291.615 362.633 291.679 362.681 291.743C362.713 291.807 362.745 291.903 362.761 292.015C362.777 292.127 362.793 292.271 362.793 292.431C362.793 292.574 362.793 292.702 362.761 292.814C362.761 292.926 362.713 293.006 362.681 293.07C362.649 293.134 362.601 293.182 362.537 293.214C362.489 293.246 362.425 293.262 362.361 293.262H356.985V298.986H363.337C363.337 298.986 363.465 299.002 363.513 299.034C363.561 299.065 363.609 299.113 363.657 299.193C363.705 299.273 363.721 299.353 363.737 299.465C363.753 299.577 363.769 299.721 363.769 299.881H363.785Z" fill="white"/>
<path d="M165.485 35.7485C181.661 34.1337 189.676 39.6175 192.556 55.5252C194.3 65.1018 194.572 74.9502 195.628 85.8858C203.484 72.648 215.82 71.8966 228.508 71.9446C246.827 71.9925 265.179 71.9605 283.979 71.9605C284.123 70.2019 284.203 68.4273 284.203 66.6367C284.203 29.849 254.347 0.0159912 217.532 0.0159912C191.292 0.0159912 168.589 15.1723 157.709 37.2033C160.269 36.5798 162.861 36.0202 165.469 35.7485H165.485Z" fill="white"/>
<path d="M183.773 111.258C182.733 97.3649 181.853 83.4557 180.765 69.5624C180.509 66.2369 179.901 62.8795 179.053 59.65C176.685 50.6809 171.725 47.4834 162.429 49.0502C159.149 49.6098 155.917 50.4251 152.685 51.2405C151.517 56.1807 150.877 61.3287 150.877 66.6206C150.877 91.5454 164.589 113.257 184.877 124.688C184.493 120.227 184.109 115.751 183.773 111.258Z" fill="white"/>
<path d="M233.884 85.4541C226.332 85.9817 218.956 86.0137 211.772 87.1648C205.468 88.172 201.644 92.9364 200.716 99.0596C199.308 108.301 198.444 117.621 197.724 126.942C197.628 128.157 197.548 129.212 197.468 130.156C203.804 132.154 210.556 133.241 217.564 133.241C224.572 133.241 231.1 132.202 237.356 130.252C236.236 115.687 235.116 101.218 233.9 85.4381L233.884 85.4541Z" fill="white"/>
<path d="M260.155 85.614C253.867 85.3102 251.323 87.0369 251.179 93.8157C250.939 104.256 250.011 114.696 249.163 125.295C264.555 116.998 276.299 102.817 281.419 85.7739C274.299 85.8538 267.211 85.9657 260.155 85.614Z" fill="white"/>
<path d="M61.6149 226.529C61.6149 230.51 60.8629 234.267 59.3429 237.769C57.8229 241.27 55.775 244.324 53.199 246.898C50.6231 249.472 47.5671 251.534 44.0632 253.037C40.5592 254.556 36.7993 255.307 32.8154 255.307C28.8315 255.307 25.0715 254.556 21.5676 253.037C18.0637 251.518 15.0077 249.472 12.4318 246.898C9.83982 244.308 7.79186 241.27 6.28789 237.769C4.76792 234.267 4.01593 230.51 4.01593 226.529C4.01593 222.548 4.76792 218.807 6.28789 215.29C7.80786 211.789 9.85582 208.735 12.4318 206.161C15.0237 203.571 18.0637 201.525 21.5676 200.022C25.0715 198.503 28.8315 197.752 32.8154 197.752C35.5513 197.752 38.1433 198.183 40.6232 199.031C43.1032 199.878 45.3912 201.077 47.4871 202.628C49.5991 204.179 51.471 206.017 53.135 208.16C54.799 210.302 56.143 212.62 57.1829 215.13V176.712H61.6149V226.529ZM8.43185 226.529C8.43185 229.919 9.05584 233.116 10.3198 236.106C11.5678 239.096 13.3118 241.702 15.5197 243.908C17.7437 246.114 20.3196 247.873 23.2796 249.168C26.2395 250.463 29.4075 251.102 32.8154 251.102C36.2233 251.102 39.3913 250.463 42.3512 249.168C45.3112 247.873 47.8871 246.13 50.1111 243.908C52.335 241.702 54.063 239.096 55.311 236.106C56.559 233.116 57.1989 229.919 57.1989 226.529C57.1989 223.14 56.575 219.942 55.311 216.953C54.047 213.963 52.319 211.357 50.1111 209.151C47.9031 206.945 45.3112 205.186 42.3512 203.891C39.3913 202.596 36.2233 201.956 32.8154 201.956C29.4075 201.956 26.2395 202.596 23.2796 203.891C20.3196 205.186 17.7437 206.929 15.5197 209.151C13.3118 211.357 11.5678 213.963 10.3198 216.953C9.05584 219.942 8.43185 223.14 8.43185 226.529Z" fill="white"/>
<path d="M32.7994 259.32C28.2875 259.32 23.9676 258.441 19.9676 256.73C16.0157 255.019 12.5118 252.669 9.58382 249.744C6.65588 246.818 4.30392 243.332 2.59195 239.368C0.863984 235.387 0 231.07 0 226.545C0 222.021 0.879984 217.72 2.59195 213.723C4.30392 209.774 6.65588 206.273 9.58382 203.347C12.5118 200.422 16.0157 198.071 19.9676 196.361C23.9676 194.634 28.2875 193.771 32.7994 193.771C35.9513 193.771 39.0233 194.266 41.9032 195.257C44.7512 196.233 47.4231 197.64 49.8391 199.414C51.007 200.278 52.111 201.205 53.167 202.228V172.731H65.5988V226.545C65.5988 231.054 64.7188 235.371 63.0068 239.368C61.2949 243.316 58.9429 246.818 56.015 249.744C53.087 252.669 49.5831 255.019 45.6312 256.73C41.6312 258.457 37.3113 259.32 32.7994 259.32ZM32.7994 205.953C29.9674 205.953 27.3115 206.497 24.8795 207.552C22.3996 208.639 20.2076 210.126 18.3517 211.981C16.5117 213.819 15.0557 216.01 13.9997 218.504C12.9598 220.982 12.4318 223.684 12.4318 226.529C12.4318 229.375 12.9598 232.077 13.9997 234.555C15.0557 237.049 16.5117 239.256 18.3517 241.078C20.2076 242.933 22.3996 244.42 24.8795 245.507C29.7434 247.633 35.8553 247.633 40.7352 245.507C43.2152 244.42 45.4072 242.933 47.2631 241.078C49.1191 239.224 50.5591 237.049 51.615 234.555C52.655 232.077 53.183 229.375 53.183 226.529C53.183 223.684 52.655 220.982 51.615 218.504C50.5591 216.01 49.1031 213.819 47.2631 211.981C45.4072 210.126 43.2152 208.639 40.7352 207.552C38.3033 206.481 35.6313 205.953 32.8154 205.953H32.7994Z" fill="white"/>
<path d="M79.8865 226.529C79.8865 222.548 80.6385 218.807 82.1585 215.29C83.6785 211.789 85.7264 208.735 88.3024 206.161C90.8943 203.571 93.9343 201.525 97.4382 200.022C100.942 198.503 104.702 197.752 108.686 197.752C112.67 197.752 116.43 198.503 119.934 200.022C123.438 201.541 126.494 203.587 129.07 206.161C131.662 208.751 133.71 211.789 135.214 215.29C136.733 218.791 137.485 222.548 137.485 226.529C137.485 230.51 136.733 234.267 135.214 237.769C133.694 241.27 131.646 244.324 129.07 246.898C126.494 249.472 123.438 251.534 119.934 253.037C116.43 254.556 112.67 255.307 108.686 255.307C104.702 255.307 100.942 254.556 97.4382 253.037C93.9343 251.518 90.8783 249.472 88.3024 246.898C85.7104 244.308 83.6625 241.27 82.1585 237.769C80.6385 234.267 79.8865 230.51 79.8865 226.529ZM84.3185 226.529C84.3185 229.919 84.9424 233.116 86.2064 236.106C87.4544 239.096 89.1984 241.702 91.4063 243.908C93.6303 246.114 96.2062 247.873 99.1662 249.168C102.126 250.463 105.294 251.102 108.702 251.102C112.11 251.102 115.278 250.463 118.238 249.168C121.198 247.873 123.774 246.13 125.998 243.908C128.222 241.702 129.95 239.096 131.198 236.106C132.446 233.116 133.086 229.919 133.086 226.529C133.086 223.14 132.462 219.942 131.198 216.953C129.934 213.963 128.206 211.357 125.998 209.151C123.79 206.944 121.198 205.186 118.238 203.891C115.278 202.596 112.11 201.956 108.702 201.956C105.294 201.956 102.126 202.596 99.1662 203.891C96.2062 205.186 93.6303 206.928 91.4063 209.151C89.1984 211.357 87.4544 213.963 86.2064 216.953C84.9424 219.942 84.3185 223.14 84.3185 226.529Z" fill="white"/>
<path d="M108.702 259.32C104.19 259.32 99.8701 258.441 95.8702 256.73C91.9183 255.019 88.4144 252.669 85.4864 249.744C82.5585 246.818 80.2065 243.332 78.4945 239.367C76.7666 235.387 75.9026 231.07 75.9026 226.545C75.9026 222.021 76.7826 217.72 78.4945 213.723C80.2065 209.774 82.5585 206.273 85.4864 203.347C88.4144 200.422 91.9183 198.071 95.8702 196.361C99.8701 194.634 104.19 193.771 108.702 193.771C113.214 193.771 117.534 194.65 121.534 196.361C125.486 198.071 128.99 200.422 131.918 203.347C134.845 206.289 137.197 209.774 138.909 213.723C140.637 217.72 141.501 222.037 141.501 226.545C141.501 231.054 140.621 235.371 138.909 239.367C137.197 243.316 134.845 246.818 131.918 249.744C128.99 252.669 125.486 255.019 121.534 256.73C117.534 258.457 113.214 259.32 108.702 259.32ZM108.702 205.953C105.87 205.953 103.214 206.497 100.782 207.552C98.3022 208.639 96.1102 210.126 94.2542 211.981C92.4143 213.819 90.9583 216.009 89.9023 218.504C88.8623 220.982 88.3344 223.684 88.3344 226.529C88.3344 229.375 88.8623 232.077 89.9023 234.555C90.9583 237.049 92.4143 239.256 94.2542 241.078C96.1102 242.933 98.3022 244.42 100.782 245.507C105.646 247.633 111.758 247.633 116.638 245.507C119.118 244.42 121.31 242.933 123.166 241.078C125.022 239.224 126.462 237.049 127.518 234.555C128.558 232.077 129.086 229.375 129.086 226.529C129.086 223.684 128.558 220.982 127.518 218.504C126.462 216.009 125.006 213.819 123.166 211.981C121.31 210.126 119.118 208.639 116.638 207.552C114.206 206.481 111.534 205.953 108.718 205.953H108.702Z" fill="white"/>
<path d="M183.485 203.283C180.093 203.283 176.909 203.907 173.949 205.17C170.989 206.433 168.413 208.16 166.189 210.366C163.981 212.572 162.237 215.162 160.989 218.12C159.725 221.078 159.101 224.243 159.101 227.649V254.22H154.669V227.649C154.669 223.668 155.421 219.926 156.941 216.409C158.461 212.908 160.509 209.854 163.085 207.28C165.677 204.69 168.717 202.644 172.221 201.141C175.725 199.622 179.485 198.871 183.469 198.871V203.299L183.485 203.283Z" fill="white"/>
<path d="M163.101 258.217H150.669V227.649C150.669 223.14 151.549 218.823 153.261 214.826C154.973 210.877 157.325 207.376 160.253 204.45C163.181 201.525 166.669 199.174 170.637 197.464C174.637 195.737 178.957 194.874 183.469 194.874H187.469V207.296H183.469C180.621 207.296 177.949 207.824 175.501 208.863C173.037 209.918 170.845 211.373 169.005 213.212C167.165 215.05 165.693 217.225 164.653 219.703C163.613 222.149 163.085 224.819 163.085 227.664V258.233L163.101 258.217Z" fill="white"/>
<path d="M199.548 254.22V198.871H203.98V215.146C205.02 212.636 206.348 210.318 207.964 208.176C209.58 206.033 211.452 204.195 213.564 202.644C215.676 201.093 217.98 199.894 220.492 199.047C223.004 198.199 225.628 197.768 228.364 197.768C232.348 197.768 236.108 198.519 239.612 200.038C243.115 201.557 246.171 203.603 248.747 206.177C251.339 208.767 253.387 211.805 254.891 215.306C256.411 218.807 257.163 222.564 257.163 226.545V254.22H252.731V226.545C252.731 223.156 252.107 219.974 250.843 217.017C249.579 214.059 247.851 211.485 245.643 209.263C243.435 207.04 240.844 205.314 237.884 204.067C234.924 202.82 231.756 202.18 228.348 202.18C224.94 202.18 221.916 202.788 219.036 204.003C216.156 205.218 213.612 206.881 211.388 208.991C209.18 211.101 207.404 213.563 206.076 216.409C204.748 219.255 204.044 222.293 203.964 225.538V254.204H199.532L199.548 254.22Z" fill="white"/>
<path d="M261.147 258.217H248.715V226.545C248.715 223.7 248.187 221.03 247.147 218.584C246.091 216.121 244.635 213.931 242.795 212.093C240.956 210.254 238.764 208.783 236.3 207.744C233.852 206.705 231.18 206.177 228.332 206.177C225.484 206.177 222.956 206.689 220.588 207.696C218.172 208.719 215.996 210.126 214.14 211.885C212.3 213.627 210.796 215.722 209.692 218.104C208.604 220.438 208.028 222.964 207.964 225.634V258.217H195.532V194.874H207.964V202.132C208.972 201.157 210.044 200.246 211.18 199.414C213.612 197.624 216.316 196.217 219.196 195.242C222.108 194.25 225.196 193.755 228.348 193.755C232.86 193.755 237.18 194.634 241.18 196.345C245.131 198.055 248.635 200.406 251.563 203.331C254.491 206.257 256.843 209.758 258.555 213.707C260.283 217.704 261.147 222.021 261.147 226.529V258.201V258.217Z" fill="white"/>
<path d="M275.435 226.529C275.435 222.548 276.187 218.807 277.707 215.29C279.227 211.789 281.275 208.735 283.851 206.161C286.443 203.571 289.483 201.525 292.987 200.022C296.49 198.503 300.25 197.752 304.234 197.752C308.218 197.752 311.962 198.503 315.482 200.022C318.986 201.541 322.042 203.587 324.618 206.161C327.21 208.751 329.258 211.789 330.762 215.29C332.282 218.791 333.034 222.548 333.034 226.529C333.034 230.51 332.282 234.267 330.762 237.769C329.242 241.27 327.194 244.324 324.618 246.898C322.042 249.472 318.986 251.534 315.482 253.037C311.978 254.556 308.218 255.307 304.234 255.307C300.25 255.307 296.49 254.556 292.987 253.037C289.483 251.518 286.427 249.472 283.851 246.898C281.259 244.308 279.211 241.27 277.707 237.769C276.187 234.267 275.435 230.51 275.435 226.529ZM279.867 226.529C279.867 229.919 280.491 233.116 281.755 236.106C283.003 239.096 284.747 241.702 286.955 243.908C289.163 246.114 291.755 247.873 294.715 249.168C297.674 250.463 300.842 251.102 304.25 251.102C307.658 251.102 310.826 250.463 313.786 249.168C316.746 247.873 319.322 246.13 321.546 243.908C323.77 241.686 325.498 239.096 326.746 236.106C328.01 233.116 328.634 229.919 328.634 226.529C328.634 223.14 328.01 219.942 326.746 216.953C325.482 213.963 323.754 211.357 321.546 209.151C319.338 206.944 316.746 205.186 313.786 203.891C310.826 202.596 307.658 201.956 304.25 201.956C300.842 201.956 297.674 202.596 294.715 203.891C291.755 205.186 289.179 206.928 286.955 209.151C284.731 211.373 283.003 213.963 281.755 216.953C280.491 219.942 279.867 223.14 279.867 226.529Z" fill="white"/>
<path d="M304.234 259.32C299.722 259.32 295.403 258.441 291.403 256.73C287.451 255.019 283.947 252.669 281.019 249.744C278.091 246.818 275.739 243.316 274.027 239.367C272.299 235.371 271.435 231.07 271.435 226.545C271.435 222.021 272.315 217.72 274.027 213.723C275.739 209.774 278.091 206.273 281.019 203.347C283.947 200.422 287.451 198.071 291.403 196.361C295.403 194.634 299.722 193.771 304.234 193.771C308.746 193.771 313.066 194.65 317.066 196.361C321.018 198.071 324.522 200.422 327.45 203.347C330.378 206.289 332.73 209.774 334.442 213.723C336.17 217.72 337.034 222.037 337.034 226.545C337.034 231.054 336.154 235.371 334.442 239.367C332.73 243.316 330.378 246.818 327.45 249.744C324.522 252.669 321.018 255.019 317.066 256.73C313.066 258.457 308.746 259.32 304.234 259.32ZM304.234 205.953C301.402 205.953 298.746 206.497 296.314 207.552C293.835 208.639 291.643 210.126 289.787 211.981C287.947 213.819 286.491 216.009 285.435 218.504C284.395 220.982 283.867 223.684 283.867 226.529C283.867 229.375 284.395 232.077 285.435 234.555C286.491 237.049 287.947 239.24 289.787 241.078C291.643 242.933 293.835 244.42 296.314 245.507C298.746 246.578 301.418 247.106 304.234 247.106C307.05 247.106 309.722 246.562 312.154 245.507C314.634 244.42 316.826 242.933 318.682 241.078C320.522 239.24 321.978 237.049 323.034 234.555C324.074 232.077 324.602 229.375 324.602 226.529C324.602 223.684 324.074 220.982 323.034 218.504C321.978 216.009 320.522 213.819 318.682 211.981C316.826 210.126 314.634 208.639 312.154 207.552C309.722 206.481 307.05 205.953 304.234 205.953Z" fill="white"/>
<path d="M379.017 255.323C375.033 255.323 371.273 254.572 367.769 253.053C364.265 251.534 361.209 249.488 358.633 246.914C356.041 244.324 353.993 241.286 352.489 237.785C350.969 234.283 350.217 230.526 350.217 226.545V193.339H354.649V217.912H379.017V222.117H354.649V226.545C354.649 229.935 355.273 233.116 356.537 236.074C357.785 239.032 359.529 241.606 361.737 243.828C363.945 246.05 366.537 247.777 369.497 249.024C372.457 250.287 375.625 250.911 379.033 250.911V255.339L379.017 255.323Z" fill="white"/>
<path d="M383.017 259.32H379.017C374.505 259.32 370.185 258.441 366.185 256.73C362.233 255.019 358.729 252.669 355.801 249.744C352.873 246.818 350.521 243.316 348.809 239.368C347.082 235.371 346.218 231.07 346.218 226.545V189.342H358.649V213.915H383.017V226.114H358.649V226.545C358.649 229.391 359.177 232.061 360.217 234.507C361.257 236.969 362.729 239.16 364.569 240.998C366.409 242.837 368.601 244.308 371.065 245.347C373.513 246.386 376.185 246.914 379.033 246.914H383.033V259.336L383.017 259.32Z" fill="white"/>
<path d="M425 255.323C421.016 255.323 417.256 254.572 413.752 253.053C410.248 251.534 407.192 249.488 404.616 246.914C402.025 244.324 399.977 241.286 398.473 237.785C396.953 234.283 396.201 230.526 396.201 226.545V193.339H400.633V217.912H425V222.117H400.633V226.545C400.633 229.935 401.257 233.116 402.52 236.074C403.768 239.032 405.512 241.606 407.72 243.828C409.928 246.05 412.52 247.777 415.48 249.024C418.44 250.287 421.608 250.911 425.016 250.911V255.339L425 255.323Z" fill="white"/>
<path d="M429 259.32H425C420.488 259.32 416.168 258.441 412.168 256.73C408.216 255.019 404.712 252.669 401.784 249.744C398.857 246.818 396.505 243.316 394.793 239.368C393.065 235.371 392.201 231.07 392.201 226.545V189.342H404.632V213.915H429V226.114H404.632V226.545C404.632 229.391 405.16 232.061 406.2 234.507C407.24 236.969 408.712 239.16 410.552 240.998C412.392 242.837 414.584 244.308 417.048 245.347C419.496 246.386 422.168 246.914 425.016 246.914H429.016V259.336L429 259.32Z" fill="white"/>
</g>
<defs>
<clipPath id="clip0_2_804">
<rect width="429" height="301" fill="white"/>
</clipPath>
</defs>
</svg>
