<svg width="225" height="48" viewBox="0 0 225 48" fill="none" xmlns="http://www.w3.org/2000/svg">
    <g clip-path="url(#clip0_4206_7166)">
        <path
            d="M67.5054 21.7157C67.0845 20.9349 66.4791 20.3392 65.6931 19.9247C64.8993 19.516 63.973 19.3097 62.9083 19.3097C61.0691 19.3097 59.5912 19.917 58.4784 21.1277C57.3733 22.3442 56.8141 23.9617 56.8141 25.9936C56.8141 28.1528 57.4002 29.8436 58.5668 31.0524C59.7334 32.2688 61.3381 32.878 63.3772 32.878C64.7763 32.878 65.9621 32.5233 66.9288 31.8081C67.8936 31.0928 68.6008 30.0711 69.0409 28.7331H61.8109V24.5227H74.205V29.8359C73.7841 31.2606 73.0653 32.5908 72.0602 33.8131C71.0474 35.0353 69.7674 36.032 68.2088 36.7858C66.6559 37.5415 64.9051 37.9213 62.9467 37.9213C60.6405 37.9213 58.5764 37.4143 56.7699 36.3983C54.9575 35.3901 53.545 33.9789 52.5398 32.1744C51.527 30.3699 51.0216 28.3032 51.0216 25.9917C51.0216 23.6802 51.527 21.6077 52.5398 19.7898C53.545 17.9795 54.9518 16.5625 56.7506 15.5465C58.5495 14.5383 60.6078 14.0293 62.9121 14.0293C65.7104 14.0293 68.0685 14.7118 69.9942 16.0671C71.9122 17.4243 73.1845 19.3097 73.8052 21.7138H67.5092L67.5054 21.7157Z"
            fill="white" />
        <path
            d="M83.0609 23.6204H90.6888V28.0314H83.0609V33.1769H91.6882V37.7555H80.1282C79.3959 37.7555 78.6945 37.4625 78.1756 36.9401C77.6566 36.4195 77.3626 35.7159 77.3626 34.9813V17.0695C77.3626 16.335 77.6566 15.6256 78.1756 15.105C78.6945 14.5826 79.394 14.2953 80.1282 14.2953H91.6882V18.874H83.0609V23.6204Z"
            fill="white" />
        <path
            d="M174.757 23.6204H182.385V28.0314H174.757V33.1769H183.384V37.7555H171.824C171.092 37.7555 170.39 37.4625 169.871 36.9401C169.353 36.4195 169.058 35.7159 169.058 34.9813V17.0695C169.058 16.335 169.353 15.6256 169.871 15.105C170.39 14.5826 171.09 14.2953 171.824 14.2953H183.384V18.874H174.757V23.6204Z"
            fill="white" />
        <path d="M112.21 14.2973V18.876H106.014V37.7555H100.317V18.876H94.1212V14.2973H112.21Z"
            fill="white" />
        <path
            d="M137.659 21.7157C137.24 20.9349 136.633 20.3392 135.847 19.9247C135.061 19.516 134.129 19.3097 133.062 19.3097C131.223 19.3097 129.743 19.917 128.63 21.1277C127.523 22.3442 126.964 23.9617 126.964 25.9936C126.964 28.1528 127.55 29.8436 128.717 31.0524C129.881 32.2688 131.488 32.878 133.527 32.878C134.926 32.878 136.112 32.5233 137.079 31.8081C138.045 31.0928 138.751 30.0691 139.191 28.7331H131.961V24.5227H144.353V29.8359C143.932 31.2606 143.221 32.5908 142.208 33.8131C141.195 35.0353 139.915 36.032 138.357 36.7858C136.804 37.5415 135.051 37.9213 133.093 37.9213C130.788 37.9213 128.728 37.4143 126.916 36.3983C125.104 35.3901 123.691 33.9789 122.686 32.1744C121.673 30.3699 121.166 28.3032 121.166 25.9917C121.166 23.6802 121.673 21.6077 122.686 19.7898C123.691 17.9795 125.098 16.5625 126.897 15.5465C128.696 14.5383 130.754 14.0293 133.06 14.0293C135.858 14.0293 138.222 14.7118 140.142 16.0671C142.06 17.4243 143.332 19.3097 143.953 21.7138H137.657L137.659 21.7157Z"
            fill="white" />
        <path d="M225 14.2973V18.876H218.804V37.7575H213.108V18.876H206.91V14.2973H225Z"
            fill="white" />
        <path
            d="M159.447 37.7575L154.583 28.9028H153.218V37.7575H147.522V14.2973H157.083C158.926 14.2973 160.498 14.6212 161.798 15.267C163.097 15.9128 164.067 16.7996 164.713 17.9236C165.357 19.0495 165.68 20.3026 165.68 21.6829C165.68 23.2426 165.242 24.6345 164.363 25.8606C163.485 27.0867 162.192 27.9543 160.483 28.4671L165.88 37.7575H159.447ZM153.218 24.8581H156.749C157.793 24.8581 158.575 24.6017 159.097 24.0889C159.618 23.5761 159.88 22.8531 159.88 21.9162C159.88 20.9793 159.618 20.3238 159.097 19.811C158.575 19.2982 157.793 19.0417 156.749 19.0417H153.218V24.8581Z"
            fill="white" />
        <path
            d="M201.367 33.6126H192.638L191.239 37.7555H185.275L193.737 14.2953H200.335L208.797 37.7555H202.766L201.367 33.6126ZM199.9 29.2016L197.002 20.613L194.137 29.2016H199.9Z"
            fill="white" />
        <path
            d="M19.3704 26.1746L32.2834 18.6964V33.6548L19.3685 41.1329L6.45553 33.6548V18.6964L12.913 14.9583L6.45553 11.2183L1.97567 13.8132C0.751448 14.5226 0 15.8316 0 17.2486V35.1064C0 36.5234 0.75337 37.8324 1.97567 38.5419L17.3928 47.4698C18.6152 48.1793 20.1238 48.1793 21.3461 47.4698L36.7633 38.5419C37.9856 37.8324 38.739 36.5253 38.739 35.1084V17.2486C38.739 15.8316 37.9856 14.5226 36.7633 13.8151L32.2834 11.2202L19.3704 18.6984V26.1766V26.1746Z"
            fill="#FF4405" />
        <path fill-rule="evenodd" clip-rule="evenodd"
            d="M25.8279 0L32.2854 3.74006L21.3481 10.0731C20.1238 10.7806 18.6171 10.7806 17.3948 10.0731L6.45747 3.74006L12.913 0L19.3705 3.74006L25.8279 0Z"
            fill="#FF4405" />
    </g>
    <defs>
        <clipPath id="clip0_4206_7166">
            <rect width="225" height="48" fill="white" />
        </clipPath>
    </defs>
</svg>