<svg width="400" height="490" viewBox="0 0 400 490" fill="none" xmlns="http://www.w3.org/2000/svg">
    <path
        d="M200.01 267.189L333.343 190.852V343.545L199.99 419.882L66.6567 343.545V190.852L133.333 152.693L66.6567 114.515L20.3999 141.004C7.75909 148.246 0 161.608 0 176.073V358.364C0 372.828 7.77893 386.191 20.3999 393.433L179.59 484.568C192.211 491.811 207.789 491.811 220.41 484.568L379.6 393.433C392.221 386.191 400 372.848 400 358.383V176.073C400 161.608 392.221 148.246 379.6 141.023L333.343 114.535L200.01 190.872V267.208V267.189Z"
        fill="#FF4405" />
    <path fill-rule="evenodd" clip-rule="evenodd"
        d="M266.687 0L333.363 38.1782L220.43 102.825C207.789 110.048 192.231 110.048 179.61 102.825L66.6768 38.1782L133.334 0L200.01 38.1782L266.687 0Z"
        fill="#FF4405" />
</svg>