<svg width="197" height="42" viewBox="0 0 197 42" fill="none" xmlns="http://www.w3.org/2000/svg">
    <g clip-path="url(#clip0_4206_6674)">
        <path
            d="M59.1046 19.001C58.7361 18.3178 58.206 17.7966 57.5178 17.4339C56.8229 17.0763 56.0118 16.8958 55.0796 16.8958C53.4693 16.8958 52.1753 17.4271 51.201 18.4865C50.2334 19.5509 49.7438 20.9662 49.7438 22.7442C49.7438 24.6335 50.257 26.1129 51.2784 27.1706C52.2998 28.235 53.7048 28.768 55.4902 28.768C56.7152 28.768 57.7534 28.4577 58.5998 27.8318C59.4445 27.206 60.0637 26.3119 60.4491 25.1412H54.1188V21.4571H64.9705V26.1061C64.602 27.3527 63.9726 28.5167 63.0926 29.5862C62.2058 30.6557 61.0851 31.5278 59.7205 32.1874C58.3609 32.8486 56.8279 33.1809 55.1132 33.1809C53.094 33.1809 51.2868 32.7373 49.7051 31.8483C48.1183 30.9661 46.8815 29.7313 46.0014 28.1523C45.1147 26.5734 44.6721 24.7651 44.6721 22.7425C44.6721 20.7199 45.1147 18.9065 46.0014 17.3158C46.8815 15.7318 48.1132 14.492 49.6882 13.603C51.2632 12.7207 53.0654 12.2754 55.083 12.2754C57.533 12.2754 59.5976 12.8725 61.2837 14.0584C62.963 15.246 64.077 16.8958 64.6205 18.9993H59.108L59.1046 19.001Z"
            fill="white" />
        <path
            d="M72.7243 20.6676H79.403V24.5272H72.7243V29.0295H80.278V33.0359H70.1566C69.5154 33.0359 68.9013 32.7794 68.4469 32.3223C67.9926 31.8668 67.7352 31.2511 67.7352 30.6084V14.9356C67.7352 14.2929 67.9926 13.6721 68.4469 13.2167C68.9013 12.7595 69.5138 12.5082 70.1566 12.5082H80.278V16.5145H72.7243V20.6676Z"
            fill="white" />
        <path
            d="M153.009 20.6676H159.688V24.5272H153.009V29.0295H160.563V33.0359H150.441C149.8 33.0359 149.186 32.7794 148.732 32.3223C148.277 31.8668 148.02 31.2511 148.02 30.6084V14.9356C148.02 14.2929 148.277 13.6721 148.732 13.2167C149.186 12.7595 149.799 12.5082 150.441 12.5082H160.563V16.5145H153.009V20.6676Z"
            fill="white" />
        <path d="M98.2458 12.5099V16.5162H92.8208V33.0359H87.8333V16.5162H82.4083V12.5099H98.2458Z"
            fill="white" />
        <path
            d="M120.528 19.001C120.161 18.3178 119.63 17.7966 118.941 17.4339C118.253 17.0763 117.437 16.8958 116.503 16.8958C114.893 16.8958 113.597 17.4271 112.623 18.4865C111.654 19.5509 111.164 20.9662 111.164 22.7442C111.164 24.6335 111.677 26.1129 112.698 27.1706C113.718 28.235 115.125 28.768 116.91 28.768C118.135 28.768 119.174 28.4577 120.02 27.8318C120.866 27.206 121.484 26.3103 121.869 25.1412H115.539V21.4571H126.389V26.1061C126.02 27.3527 125.398 28.5167 124.511 29.5862C123.624 30.6557 122.504 31.5278 121.139 32.1874C119.779 32.8486 118.245 33.1809 116.53 33.1809C114.512 33.1809 112.709 32.7373 111.122 31.8483C109.535 30.9661 108.298 29.7313 107.418 28.1523C106.531 26.5734 106.087 24.7651 106.087 22.7425C106.087 20.7199 106.531 18.9065 107.418 17.3158C108.298 15.7318 109.53 14.492 111.105 13.603C112.68 12.7207 114.482 12.2754 116.501 12.2754C118.951 12.2754 121.021 12.8725 122.702 14.0584C124.381 15.246 125.495 16.8958 126.039 18.9993H120.526L120.528 19.001Z"
            fill="white" />
        <path d="M197 12.5099V16.5162H191.575V33.0375H186.587V16.5162H181.161V12.5099H197Z"
            fill="white" />
        <path
            d="M139.605 33.0375L135.346 25.2897H134.151V33.0375H129.164V12.5099H137.535C139.149 12.5099 140.525 12.7933 141.663 13.3584C142.8 13.9235 143.65 14.6994 144.215 15.6829C144.779 16.668 145.062 17.7645 145.062 18.9723C145.062 20.337 144.678 21.5549 143.909 22.6278C143.14 23.7006 142.008 24.4597 140.512 24.9085L145.237 33.0375H139.605ZM134.151 21.7506H137.242C138.156 21.7506 138.841 21.5263 139.299 21.0775C139.755 20.6288 139.983 19.9963 139.983 19.1764C139.983 18.3566 139.755 17.7831 139.299 17.3344C138.841 16.8856 138.156 16.6613 137.242 16.6613H134.151V21.7506Z"
            fill="white" />
        <path
            d="M176.308 29.4107H168.665L167.44 33.0359H162.219L169.627 12.5082H175.404L182.813 33.0359H177.533L176.308 29.4107ZM175.024 25.5512L172.486 18.0361L169.977 25.5512H175.024Z"
            fill="white" />
        <path
            d="M16.9599 22.9028L28.2659 16.3594V29.4479L16.9582 35.9913L5.65218 29.4479V16.3594L11.306 13.0885L5.65218 9.81597L1.72981 12.0865C0.657934 12.7073 0 13.8527 0 15.0925V30.7181C0 31.958 0.659617 33.1034 1.72981 33.7242L15.2284 41.5361C16.2986 42.1569 17.6195 42.1569 18.6897 41.5361L32.1883 33.7242C33.2585 33.1034 33.9181 31.9597 33.9181 30.7198V15.0925C33.9181 13.8527 33.2585 12.7073 32.1883 12.0882L28.2659 9.81766L16.9599 16.3611V22.9045V22.9028Z"
            fill="white" />
        <path fill-rule="evenodd" clip-rule="evenodd"
            d="M22.6138 0L28.2676 3.27255L18.6914 8.81396C17.6195 9.43305 16.3003 9.43305 15.2301 8.81396L5.65388 3.27255L11.3061 0L16.9599 3.27255L22.6138 0Z"
            fill="white" />
    </g>
    <defs>
        <clipPath id="clip0_4206_6674">
            <rect width="197" height="42" fill="white" />
        </clipPath>
    </defs>
</svg>