<svg width="69" height="78" viewBox="0 0 69 78" fill="none" xmlns="http://www.w3.org/2000/svg">
<rect width="69" height="69" rx="16" fill="#4E443D"/>
<path d="M17.7632 24.6757C22.9665 24.1607 25.5451 25.9097 26.4715 30.9832C27.0325 34.0376 27.12 37.1786 27.4597 40.6663C29.9867 36.4443 33.9549 36.2047 38.0362 36.22C43.9293 36.2353 49.8326 36.2251 55.8801 36.2251C55.9264 35.6642 55.9521 35.0982 55.9521 34.5271C55.9521 22.7941 46.3483 13.2793 34.5056 13.2793C26.0649 13.2793 18.7616 18.1132 15.2618 25.1397C16.0853 24.9408 16.9191 24.7624 17.758 24.6757H17.7632Z" fill="white"/>
<path d="M23.6459 48.7582C23.3114 44.3271 23.0283 39.8909 22.6784 35.4598C22.596 34.3992 22.4004 33.3284 22.1276 32.2984C21.3659 29.4379 19.7704 28.418 16.7802 28.9178C15.7251 29.0962 14.6854 29.3563 13.6458 29.6163C13.2701 31.1919 13.0642 32.8338 13.0642 34.5216C13.0642 42.4711 17.475 49.3956 24.0011 53.0414C23.8775 51.6188 23.754 50.191 23.6459 48.7582Z" fill="white"/>
<path d="M39.7655 40.5285C37.3363 40.6968 34.9636 40.707 32.6527 41.0741C30.6249 41.3954 29.3948 42.9149 29.0963 44.8678C28.6434 47.8151 28.3655 50.7878 28.1339 53.7606C28.103 54.1481 28.0772 54.4847 28.0515 54.7855C30.0896 55.4229 32.2616 55.7696 34.5158 55.7696C36.7701 55.7696 38.87 55.4382 40.8824 54.8161C40.5221 50.1709 40.1618 45.5562 39.7707 40.5234L39.7655 40.5285Z" fill="white"/>
<path d="M48.2166 40.5798C46.1939 40.483 45.3756 41.0337 45.3293 43.1957C45.2521 46.5253 44.9536 49.855 44.6808 53.2357C49.632 50.5893 53.4097 46.0664 55.0566 40.6308C52.7663 40.6563 50.4863 40.692 48.2166 40.5798Z" fill="white"/>
<path d="M36 78L30.8038 69L41.1961 69L36 78Z" fill="#4E443D"/>
</svg>
