<svg width="358" height="358" viewBox="0 0 358 358" fill="none" xmlns="http://www.w3.org/2000/svg">
<rect width="358" height="358" fill="#414651"/>
<path d="M116.5 136.45C135.878 134.487 145.48 141.155 148.931 160.498C151.02 172.143 151.346 184.119 152.611 197.416C162.022 181.319 176.8 180.406 192 180.464C213.946 180.522 235.931 180.484 258.453 180.484C258.625 178.345 258.721 176.187 258.721 174.01C258.721 129.276 222.955 93 178.851 93C147.416 93 120.218 111.43 107.184 138.219C110.251 137.461 113.356 136.781 116.48 136.45H116.5Z" fill="white"/>
<path d="M138.408 228.269C137.162 211.375 136.108 194.461 134.805 177.567C134.498 173.524 133.77 169.441 132.754 165.514C129.917 154.608 123.975 150.72 112.839 152.625C108.909 153.305 105.038 154.297 101.166 155.288C99.7667 161.295 99 167.555 99 173.99C99 204.298 115.426 230.699 139.731 244.599C139.271 239.175 138.811 233.732 138.408 228.269Z" fill="white"/>
<path d="M198.44 196.891C189.393 197.533 180.557 197.572 171.951 198.972C164.399 200.196 159.818 205.99 158.706 213.435C157.019 224.672 155.984 236.006 155.122 247.34C155.007 248.818 154.911 250.101 154.815 251.248C162.405 253.678 170.494 255 178.889 255C187.284 255 195.105 253.736 202.599 251.364C201.257 233.654 199.916 216.06 198.459 196.872L198.44 196.891Z" fill="white"/>
<path d="M229.913 197.086C222.38 196.717 219.332 198.816 219.16 207.059C218.872 219.754 217.761 232.449 216.745 245.338C235.184 235.248 249.253 218.004 255.386 197.28C246.857 197.378 238.365 197.514 229.913 197.086Z" fill="white"/>
</svg>
