<svg width="100" height="100" viewBox="0 0 100 100" fill="none" xmlns="http://www.w3.org/2000/svg">
    <rect width="100" height="100" rx="50" fill="white" />
    <path
        d="M90.4115 56.4376L90.7469 53.1757L84.4502 52.5073L84.5952 51.0973L92 51.8833L91.3746 57.9653L83.9698 57.1793L84.1148 55.7693L90.4115 56.4376Z"
        fill="black" />
    <path
        d="M82.626 64.1985C82.3626 64.8586 82.3791 65.4743 82.6755 66.0454C82.9758 66.6258 83.5023 67.071 84.2549 67.3811L84.3321 67.4129C85.0591 67.7123 85.7292 67.76 86.3424 67.556C86.9595 67.3612 87.4024 66.9272 87.671 66.2539C87.9423 65.5741 87.931 64.9454 87.6372 64.3677C87.3408 63.7966 86.8162 63.356 86.0635 63.0459L85.9863 63.0141C85.2401 62.7067 84.5564 62.6648 83.9353 62.8884C83.3207 63.1147 82.8843 63.5514 82.626 64.1985ZM81.6013 63.7535C82.0239 62.6946 82.6969 61.9749 83.6203 61.5942C84.5438 61.2135 85.5105 61.2312 86.5205 61.6473L86.5977 61.6791C87.6142 62.0978 88.322 62.7738 88.7211 63.7069C89.1177 64.6465 89.1086 65.636 88.6939 66.6753C88.2792 67.7146 87.6133 68.4259 86.6963 68.8092C85.7831 69.2017 84.8183 69.1886 83.8019 68.7698L83.7247 68.738C82.7082 68.3193 81.9959 67.6453 81.5877 66.7161C81.1768 65.7934 81.1814 64.8059 81.6013 63.7535Z"
        fill="black" />
    <path
        d="M76.6506 71.8848C77.3653 70.9664 78.1876 70.4671 79.1173 70.3867C80.0428 70.312 80.9602 70.6399 81.8695 71.3704L81.9349 71.4229C82.8061 72.1228 83.3085 72.967 83.442 73.9554C83.581 74.9481 83.3254 75.8622 82.6752 76.6977C82.1242 77.4058 81.4957 77.8496 80.7898 78.0288C80.0797 78.2136 79.3666 78.0723 78.6506 77.605L79.5224 76.4847C79.9673 76.7431 80.3755 76.8327 80.7469 76.7535C81.1194 76.6841 81.4715 76.4364 81.803 76.0104C82.2077 75.4903 82.3422 74.9195 82.2064 74.298C82.0761 73.6807 81.6869 73.1119 81.0389 72.5913L80.9736 72.5388C80.3147 72.0095 79.6817 71.7483 79.0746 71.7551C78.473 71.7663 77.959 72.0458 77.5328 72.5935C77.2056 73.014 77.0421 73.4401 77.0424 73.8719C77.0481 74.3081 77.2287 74.7185 77.5843 75.103L76.7448 76.1819C76.1178 75.5434 75.8054 74.8474 75.8077 74.0939C75.8056 73.346 76.0866 72.6096 76.6506 71.8848Z"
        fill="black" />
    <path
        d="M76.151 83.0907L74.6286 84.1648L70.1224 81.0585L71.4469 86.4096L69.9416 87.4716L65.6951 81.2583L66.8327 80.4557L70.0398 85.1483L68.6544 79.1704L69.0222 78.9109L74.0853 82.294L70.8782 77.6015L71.9045 76.8773L76.151 83.0907Z"
        fill="black" />
    <path
        d="M59.6686 84.2209C58.9962 84.4229 58.5325 84.8195 58.2775 85.4109C58.0177 86.0111 58.003 86.7069 58.2332 87.4983L58.2568 87.5794C58.4791 88.3438 58.8598 88.9061 59.399 89.2663C59.9334 89.6354 60.5434 89.717 61.2291 89.5111C61.9215 89.3032 62.3985 88.9025 62.6602 88.3091C62.9152 87.7177 62.9277 87.0263 62.6975 86.2349L62.6739 86.1537C62.4456 85.3691 62.052 84.7997 61.4929 84.4454C60.9357 84.0978 60.3277 84.023 59.6686 84.2209ZM59.3728 83.1293C60.4512 82.8055 61.4247 82.892 62.293 83.3887C63.1614 83.8855 63.75 84.6649 64.0589 85.7268L64.0825 85.808C64.3934 86.8766 64.314 87.8603 63.8443 88.7589C63.3679 89.6595 62.6005 90.2687 61.542 90.5865C60.4835 90.9044 59.521 90.8183 58.6546 90.3283C57.7835 89.847 57.1926 89.0721 56.8817 88.0034L56.8581 87.9222C56.5472 86.8535 56.6223 85.8675 57.0834 84.9641C57.5379 84.0628 58.301 83.4512 59.3728 83.1293Z"
        fill="black" />
    <path
        d="M51.847 90.8078L53.9186 90.7591L53.9439 91.8697L48.4058 92L48.3805 90.8894L50.4521 90.8407L50.305 84.3888L51.7 84.356L51.847 90.8078Z"
        fill="black" />
    <path
        d="M43.9232 91.4156L41.5797 90.9141C40.7374 90.7339 40.1185 90.3997 39.7232 89.9114C39.321 89.4217 39.1979 88.8007 39.3538 88.0484L39.3624 88.007C39.5183 87.2547 39.8768 86.7404 40.4377 86.464C40.9973 86.1945 41.6846 86.147 42.4998 86.3214L43.5187 86.5394L44.1024 83.7235L45.4575 84.0135L43.9232 91.4156ZM42.3243 87.3218C41.4073 87.1256 40.8615 87.4485 40.687 88.2905L40.6784 88.3319C40.5096 89.1463 40.8837 89.6516 41.8007 89.8478L42.7891 90.0593L43.3127 87.5333L42.3243 87.3218Z"
        fill="black" />
    <path
        d="M34.6752 88.7056L30.4663 86.6864L30.9331 85.6819L33.8897 87.1003L34.7611 85.2252L32.3883 84.0868L32.8329 83.1302L35.2057 84.2685L36.1348 82.269L33.0182 80.7738L33.485 79.7693L37.854 81.8652L34.6752 88.7056Z"
        fill="black" />
    <path
        d="M25.9676 82.195L27.593 83.5007L26.9149 84.3721L22.5695 80.8813L23.2476 80.0099L24.8731 81.3157L28.8125 76.2533L29.9071 77.1326L25.9676 82.195Z"
        fill="black" />
    <path
        d="M19.5681 77.6299L18.7052 76.5293L20.9123 74.7429L20.2635 73.9154C19.7445 73.2534 19.4802 72.6106 19.4706 71.9872C19.4567 71.3582 19.7457 70.8042 20.3375 70.3251L20.3701 70.2988C20.9674 69.8154 21.5743 69.6443 22.1909 69.7855C22.7977 69.9255 23.3671 70.3349 23.8991 71.0134L25.3913 72.9167L19.5681 77.6299ZM23.0603 71.6924C22.4763 70.9476 21.8559 70.8411 21.1989 71.3729L21.1663 71.3992C20.5202 71.9222 20.4891 72.556 21.073 73.3008L21.7023 74.1035L23.6896 72.495L23.0603 71.6924Z"
        fill="black" />
    <path
        d="M12.1212 65.0736L11.669 63.7437L14.8578 62.6243L10.7275 61.0072L10.2412 59.5773L14.6136 61.3556L17.237 56.9536L17.7708 58.5235L15.4187 62.4274L18.7059 61.2734L19.1582 62.6034L12.1212 65.0736Z"
        fill="black" />
    <path
        d="M9.71723 55.5521L9.30492 50.8415L10.394 50.7431L10.6836 54.0521L12.7165 53.8684L12.484 51.2128L13.5212 51.1191L13.7536 53.7747L15.9213 53.5788L15.616 50.0907L16.7051 49.9923L17.1331 54.882L9.71723 55.5521Z"
        fill="black" />
    <path
        d="M9.47305 40.6074C9.68749 40.9299 9.75868 41.3102 9.68662 41.7485C9.61457 42.1868 9.42614 42.5195 9.12135 42.7466C8.80972 42.9726 8.43593 43.0629 8 43.0175L8.15784 42.0575C8.60975 42.0913 8.86258 41.9447 8.91634 41.6178C8.94608 41.4369 8.9079 41.2838 8.80181 41.1585C8.69572 41.0333 8.54511 40.9434 8.34998 40.8888L8.50267 39.9601C8.92946 40.0611 9.25292 40.2769 9.47305 40.6074ZM16.9912 46.1847L9.64781 44.9383L9.8777 43.54L15.3826 44.4743L10.4473 40.0756L10.6772 38.6773L18.0205 39.9236L17.7906 41.3219L12.2549 40.3824L17.2211 44.7864L16.9912 46.1847Z"
        fill="black" />
    <path
        d="M20.6479 34.3382C20.1443 35.3913 19.447 36.0587 18.5561 36.3402C17.6681 36.6155 16.7028 36.4957 15.66 35.981L15.5851 35.944C14.5861 35.4508 13.9168 34.7362 13.5772 33.8001C13.2314 32.8609 13.2875 31.9124 13.7456 30.9544C14.1339 30.1424 14.6537 29.5717 15.3051 29.2424C15.9596 28.9068 16.6859 28.889 17.484 29.1889L16.8697 30.4735C16.3805 30.3183 15.963 30.32 15.617 30.4785C15.2679 30.6277 14.9765 30.9465 14.7429 31.435C14.4578 32.0313 14.4473 32.6182 14.7114 33.1955C14.9693 33.7698 15.4698 34.2403 16.2128 34.6071L16.2877 34.6441C17.0432 35.0171 17.7167 35.1339 18.3081 34.9946C18.8933 34.8522 19.3361 34.4669 19.6364 33.8389C19.867 33.3567 19.9364 32.9049 19.8448 32.4832C19.7469 32.0585 19.4836 31.6972 19.0549 31.3993L19.6465 30.1623C20.3939 30.6489 20.8463 31.2603 21.0036 31.9967C21.1639 32.7266 21.0453 33.5072 20.6479 34.3382Z"
        fill="black" />
    <path
        d="M24.9658 18.5571L22.5939 20.7817L26.8881 25.5082L25.8628 26.4698L20.8129 20.9114L25.2353 16.7637L30.2852 22.322L29.26 23.2836L24.9658 18.5571Z"
        fill="black" />
    <path
        d="M35.7733 17.9594C36.3993 17.6386 36.7858 17.1641 36.9327 16.5359C37.0826 15.8982 36.9747 15.2109 36.609 14.4741L36.5715 14.3985C36.2182 13.6869 35.7447 13.2028 35.1509 12.9463C34.5601 12.6802 33.9455 12.7108 33.3071 13.0379C32.6625 13.3682 32.2637 13.8491 32.1106 14.4805C31.9637 15.1087 32.0732 15.7912 32.4389 16.528L32.4764 16.6036C32.839 17.3341 33.3265 17.8229 33.9389 18.0699C34.5483 18.3106 35.1597 18.2738 35.7733 17.9594ZM36.2564 18.9796C35.2523 19.4942 34.2794 19.5859 33.3376 19.2549C32.3958 18.9238 31.6795 18.2639 31.1888 17.2752L31.1513 17.1997C30.6574 16.2046 30.5624 15.2224 30.8665 14.253C31.1767 13.2804 31.8246 12.5416 32.8101 12.0366C33.7956 11.5316 34.7577 11.4415 35.6964 11.7662C36.6381 12.0815 37.3559 12.7366 37.8498 13.7317L37.8873 13.8072C38.3812 14.8022 38.4808 15.786 38.1861 16.7586C37.8976 17.7279 37.2544 18.4683 36.2564 18.9796Z"
        fill="black" />
    <path
        d="M43.2737 13.3272C43.3478 14.2097 43.3059 14.8592 43.148 15.2757L46.1799 14.7125L45.2398 9.48809L42.8328 9.93522C43.0371 11.3456 43.1841 12.4763 43.2737 13.3272ZM42.7519 17.8982L41.5842 18.1151L41.1404 15.6486L41.6013 15.563C41.816 15.4227 41.9539 15.1892 42.0151 14.8623C42.075 14.5286 42.0826 14.0611 42.038 13.4599C41.8913 12.0173 41.6838 10.5502 41.4153 9.05847L46.3934 8.13378L47.532 14.4613L48.4026 14.2996L48.8464 16.7661L47.6685 16.9849L47.3739 15.6415L42.5597 16.5358L42.7519 17.8982Z"
        fill="black" />
    <path
        d="M51.7023 8L54.0908 8.17819C54.9493 8.24223 55.6066 8.48929 56.0628 8.91936C56.5259 9.34994 56.7297 9.9486 56.6743 10.7153L56.6712 10.7575C56.6158 11.5243 56.3284 12.0827 55.8089 12.4329C55.2899 12.7761 54.615 12.9167 53.7842 12.8547L52.7457 12.7773L52.5383 15.6472L51.1572 15.5442L51.7023 8ZM53.8262 11.8395C54.7609 11.9092 55.2592 11.515 55.3212 10.6568L55.3243 10.6146C55.3843 9.78457 54.9469 9.33469 54.0123 9.26497L53.005 9.18982L52.8189 11.7643L53.8262 11.8395Z"
        fill="black" />
    <path
        d="M62.7466 16.7456C63.4102 16.9757 64.0142 16.9243 64.5588 16.5914C65.1122 16.2542 65.52 15.6951 65.7824 14.9141L65.8093 14.834C66.0626 14.0797 66.0718 13.3973 65.8368 12.7866C65.6106 12.1716 65.1592 11.7468 64.4825 11.5122C63.7993 11.2752 63.1821 11.322 62.631 11.6526C62.0864 11.9855 61.6829 12.5424 61.4206 13.3234L61.3937 13.4035C61.1336 14.1778 61.1309 14.8736 61.3856 15.4911C61.6425 16.1019 62.0962 16.52 62.7466 16.7456ZM62.367 17.8101C61.3027 17.441 60.5576 16.7988 60.1316 15.8835C59.7055 14.9681 59.6685 13.9865 60.0205 12.9385L60.0474 12.8584C60.4017 11.8037 61.0261 11.0477 61.9206 10.5902C62.8216 10.1351 63.7945 10.0886 64.839 10.4508C65.8836 10.813 66.6201 11.4485 67.0483 12.3572C67.4854 13.2614 67.5268 14.2409 67.1726 15.2956L67.1457 15.3757C66.7914 16.4303 66.1692 17.1908 65.279 17.6572C64.3954 18.1259 63.4248 18.1769 62.367 17.8101Z"
        fill="black" />
    <path
        d="M74.4984 22.157C74.0866 22.7595 73.5817 23.0902 72.9837 23.1492C72.3896 23.2023 71.739 22.9794 71.032 22.4806L68.851 20.9418L73.0975 14.7285L76.9377 17.4379L76.3141 18.3504L73.6028 16.4375L72.5279 18.0103L73.6055 18.7707C74.2954 19.2574 74.7236 19.7871 74.8901 20.3597C75.0606 20.9264 74.9379 21.514 74.5222 22.1223L74.4984 22.157ZM71.6035 21.5701C72.3562 22.1011 72.9582 22.0364 73.4096 21.3759L73.4333 21.3412C73.8808 20.6865 73.7139 20.0836 72.9327 19.5325L71.9577 18.8446L70.5858 20.852L71.6035 21.5701Z"
        fill="black" />
    <path
        d="M80.5456 20.9301L81.4474 21.998L79.0449 24.0922L81.2213 26.6697L83.6237 24.5755L84.5323 25.6515L78.8817 30.5769L77.9732 29.501L80.3756 27.4068L78.1993 24.8293L75.7968 26.9235L74.895 25.8555L80.5456 20.9301Z"
        fill="black" />
    <path
        d="M87.0468 30.0284L89.0809 34.282L88.0975 34.7675L86.6686 31.7795L84.8329 32.6856L85.9796 35.0837L85.0431 35.546L83.8963 33.148L81.9389 34.1143L83.4451 37.2641L82.4617 37.7495L80.3503 33.3341L87.0468 30.0284Z"
        fill="black" />
    <path
        d="M90.5484 38.8971L91.5769 43.5093L90.5106 43.7547L89.7881 40.5149L87.7976 40.9731L88.3775 43.5733L87.362 43.807L86.7821 41.2069L84.6597 41.6955L85.4213 45.1108L84.355 45.3563L83.2873 40.5687L90.5484 38.8971Z"
        fill="black" />
    <path d="M49.4 35H50.6V65H49.4V35Z" fill="#717680" />
    <path d="M65 49.4V50.6L35 50.6L35 49.4L65 49.4Z" fill="#717680" />
</svg>