<svg xmlns="http://www.w3.org/2000/svg" width="18" height="18" viewBox="0 0 18 18" fill="none">
    <g clip-path="url(#clip0_6346_2978)">
        <path
            d="M13.899 3.18783C14.07 3.60128 14.3981 3.92992 14.8113 4.1015L16.2602 4.70165C16.6737 4.87292 17.0022 5.20143 17.1735 5.61491C17.3448 6.0284 17.3448 6.49299 17.1735 6.90647L16.5738 8.3543C16.4024 8.76797 16.4022 9.23303 16.5743 9.6465L17.173 11.0939C17.2579 11.2987 17.3016 11.5182 17.3016 11.7399C17.3017 11.9616 17.258 12.1811 17.1732 12.386C17.0883 12.5908 16.964 12.7769 16.8072 12.9336C16.6504 13.0904 16.4643 13.2147 16.2594 13.2994L14.8116 13.8991C14.3981 14.0701 14.0695 14.3983 13.8979 14.8114L13.2978 16.2603C13.1265 16.6738 12.798 17.0023 12.3845 17.1736C11.971 17.3449 11.5064 17.3449 11.0929 17.1736L9.64511 16.5739C9.23161 16.403 8.7672 16.4034 8.35396 16.5748L6.90508 17.1741C6.49183 17.345 6.02764 17.3449 5.6145 17.1737C5.20135 17.0026 4.87302 16.6745 4.70163 16.2614L4.10131 14.8121C3.93035 14.3987 3.6022 14.07 3.18901 13.8985L1.74014 13.2983C1.32683 13.1271 0.998417 12.7988 0.827083 12.3856C0.655748 11.9723 0.655516 11.5079 0.826437 11.0945L1.42615 9.64669C1.597 9.23319 1.59665 8.76877 1.42518 8.35553L0.826328 6.90562C0.741422 6.70083 0.697703 6.48131 0.697668 6.25961C0.697632 6.03792 0.741281 5.81839 0.82612 5.61357C0.91096 5.40874 1.03533 5.22265 1.19212 5.06591C1.3489 4.90917 1.53504 4.78486 1.73989 4.70009L3.18772 4.10038C3.60082 3.92957 3.92926 3.60184 4.10096 3.18912L4.70111 1.74024C4.87238 1.32676 5.20089 0.998247 5.61438 0.826976C6.02786 0.655705 6.49245 0.655705 6.90593 0.826976L8.35377 1.42669C8.76726 1.59754 9.23168 1.59719 9.64492 1.42572L11.0944 0.827905C11.5078 0.65673 11.9723 0.656765 12.3857 0.828003C12.7991 0.99924 13.1276 1.32766 13.2989 1.74104L13.8992 3.19034L13.899 3.18783Z"
            fill="#0788F5" />
        <path fill-rule="evenodd" clip-rule="evenodd"
            d="M12.5249 6.64078C12.6452 6.45191 12.6855 6.22301 12.6369 6.00444C12.5884 5.78586 12.455 5.59552 12.2662 5.47528C12.0773 5.35503 11.8484 5.31474 11.6298 5.36327C11.4113 5.41179 11.2209 5.54516 11.1007 5.73403L7.79654 10.9259L6.28454 9.0359C6.14476 8.86106 5.94124 8.74891 5.71876 8.72412C5.49629 8.69933 5.27308 8.76393 5.09823 8.90371C4.92339 9.0435 4.81123 9.24702 4.78644 9.46949C4.76165 9.69197 4.82626 9.91518 4.96604 10.09L7.21604 12.9025C7.2999 13.0075 7.4076 13.0909 7.53018 13.1458C7.65277 13.2008 7.7867 13.2256 7.92084 13.2184C8.05498 13.2111 8.18544 13.1719 8.30138 13.1041C8.41732 13.0362 8.51539 12.9417 8.58742 12.8283L12.5249 6.64078Z"
            fill="white" />
    </g>
    <defs>
        <clipPath id="clip0_6346_2978">
            <rect width="18" height="18" fill="white" />
        </clipPath>
    </defs>
</svg>